<svg viewBox="0 0 167 110" fill="none" xmlns="http://www.w3.org/2000/svg">
<g opacity="0.91">
<path fill-rule="evenodd" clip-rule="evenodd" d="M19.2177 93.3069H21.4148V109.527H19.2177V93.3069ZM63.6324 95.7275L66.052 102.878H61.046L63.5768 95.7275H63.6324ZM62.52 93.3069L56.3736 109.527H58.6542L60.3229 104.825H66.8307L68.4716 109.527H70.8077L64.9674 93.3069H62.52ZM43.6917 93.3069V100.012H52.1463V93.3069H54.2878V109.527H52.1463V101.932H43.6917V109.527H41.4668V93.3069H43.6917ZM28.2285 96.423C27.2273 97.5637 26.7267 99.1774 26.7267 101.236C26.7267 105.743 28.4788 108.025 32.0665 108.025C34.5973 108.025 36.127 106.55 36.7388 103.518H38.8525C38.4631 106.105 37.295 107.969 35.4039 109.026C34.347 109.638 33.0955 109.944 31.7606 109.944C29.7304 109.944 28.0617 109.277 26.7545 107.969C25.2249 106.439 24.474 104.213 24.474 101.292C24.474 98.7879 25.1415 96.729 26.5042 95.1988C27.867 93.5852 29.7025 92.834 32.0109 92.834C33.9855 92.834 35.5986 93.3904 36.8223 94.5033C37.8791 95.4492 38.4909 96.6456 38.7134 98.1201H36.572C36.127 95.8387 34.5973 94.7259 32.0109 94.7259C30.4534 94.7815 29.2019 95.3101 28.2285 96.423ZM13.4051 95.8944L8.84402 109.527H6.67473L2.16929 95.8944H2.05804L2.16929 109.527H0V93.3069H3.14268L7.73156 107.023H7.84281L12.4317 93.3069H15.5744V109.527H13.4329L13.4885 95.8944C13.4607 95.8944 13.4051 95.8944 13.4051 95.8944ZM160.36 94.7815C157.857 94.7815 156.606 95.7274 156.606 97.6193C156.606 98.6766 157.273 99.3443 158.553 99.6503L163.197 100.708C165.617 101.32 166.84 102.766 166.84 105.02C166.84 106.801 166.145 108.053 164.727 108.915C163.614 109.638 162.196 109.944 160.527 109.944C158.441 109.944 156.773 109.388 155.605 108.386C154.492 107.413 153.964 106.049 153.964 104.269H156.022C156.022 105.632 156.522 106.606 157.44 107.274C158.219 107.802 159.22 108.053 160.444 108.053C163.281 108.053 164.699 107.162 164.699 105.298C164.699 104.464 164.449 103.851 163.976 103.462C163.531 103.1 162.613 102.711 161.25 102.46L157.913 101.681C155.605 101.125 154.464 99.8729 154.464 97.8419C154.464 96.4786 154.937 95.3101 155.799 94.4198C156.801 93.3348 158.219 92.8062 160.082 92.8062C164.087 92.8062 166.173 94.5311 166.423 97.981H164.365C164.337 96.8682 163.837 96.0057 162.975 95.4214C162.279 95.0319 161.389 94.7815 160.36 94.7815ZM140.726 95.1432H146.149C148.123 95.1432 149.125 96.0613 149.125 97.8697C149.125 99.7616 148.012 100.708 145.843 100.708H140.726V95.1432ZM138.556 93.3069V109.527H140.726V102.572H146.037C147.956 102.572 148.958 103.518 148.958 105.465C148.958 107.44 149.069 108.804 149.291 109.555H152.017V109.193C151.461 108.887 151.238 108.359 151.238 107.58L151.071 104.63C151.044 103.629 150.821 102.822 150.432 102.377C150.209 102.071 149.764 101.793 149.152 101.542C150.626 100.68 151.377 99.3721 151.377 97.7028C151.377 94.7537 149.597 93.3348 146.065 93.3348L138.556 93.3069ZM127.765 94.7815C129.49 94.7815 130.852 95.4492 131.882 96.7012C132.883 97.8976 133.383 99.4556 133.383 101.403C133.383 103.351 132.883 104.964 131.882 106.161C130.852 107.44 129.49 108.053 127.765 108.053C125.986 108.053 124.623 107.44 123.649 106.161C122.648 104.964 122.148 103.378 122.148 101.403C122.148 99.4834 122.648 97.9254 123.649 96.7012C124.678 95.4492 126.041 94.7815 127.765 94.7815ZM121.536 95.8109C120.423 97.3689 119.867 99.2052 119.867 101.403C119.867 103.601 120.423 105.465 121.536 107.023C122.954 108.999 124.984 110 127.765 110C130.519 110 132.577 108.999 133.94 107.023C135.108 105.465 135.664 103.601 135.664 101.403C135.664 99.233 135.108 97.3689 133.94 95.8109C132.577 93.8356 130.519 92.8618 127.765 92.8618C125.012 92.8618 122.954 93.8356 121.536 95.8109ZM108.965 93.3069V101.153L116.78 93.3069H119.811L113.081 99.9007L120.006 109.527H117.225L111.496 101.375L108.965 103.851V109.527H106.74V93.3069H108.965V93.3069ZM90.0532 93.3069V107.58H98.3132V109.527H87.9396V93.3069H90.0532ZM84.8803 95.2267H75.2576V100.207H84.1294V102.126H75.2576V107.552H85.0194V109.499H73.0883V93.2791H84.8803V95.2267Z" fill="white"/>
<path d="M83.4331 73.9506C71.363 73.9506 60.7947 67.4403 55.0099 57.7583H61.5734L61.7124 40.9539L68.999 57.7583H76.1466L83.4331 40.9539V57.7583H91.2481L91.5262 46.2678L94.0571 44.1534L105.126 57.7305H111.856C106.072 67.4403 95.5033 73.9506 83.4331 73.9506ZM54.2868 25.3179V56.4507C51.7838 51.8044 50.3932 46.5182 50.3932 40.8704C50.3654 35.2782 51.7838 29.9642 54.2868 25.3179ZM83.4331 7.84578C95.5311 7.84578 106.155 14.4118 111.884 24.1494H103.847L91.6653 35.5008V24.1494H81.2917L72.7536 45.0158L64.6326 24.1494H54.9543C60.7112 14.3839 71.3074 7.84578 83.4331 7.84578ZM116.473 40.8982C116.473 46.1565 115.249 51.1088 113.052 55.5325L100.203 38.9785L112.913 26.0135C115.194 30.4928 116.473 35.5564 116.473 40.8982ZM83.4331 0C60.8503 0 42.5504 18.3068 42.5504 40.8982C42.5504 63.4896 60.8503 81.7964 83.4331 81.7964C106.016 81.7964 124.316 63.4896 124.316 40.8982C124.316 18.3068 106.016 0 83.4331 0Z" fill="white"/>
</g>
</svg>
