<svg viewBox="0 0 208 39" fill="none" xmlns="http://www.w3.org/2000/svg">
<path fill-rule="evenodd" clip-rule="evenodd" d="M43.9138 24.1573V25.2834C43.9138 29.4802 43.8465 33.2667 39.3219 36.184C34.7985 39.0495 29.2751 38.9988 23.4863 38.9988C9.91361 38.9988 0 38.487 0 24.4639V14.5349C0 1.8431 8.84879 0 23.4863 0C37.1934 0 43.58 1.07425 43.8454 12.5904V14.0739H30.1406V12.5904C29.6748 9.16127 26.5475 8.90539 22.0229 8.90539C14.4382 8.90539 13.7071 10.6966 13.7071 16.1729V22.1609C13.7071 27.893 14.0397 30.0958 22.0229 30.0958C27.5452 30.0958 30.2066 29.7868 30.2066 25.2846V24.1585H43.9138V24.1573ZM58.2718 32.0898L55.8096 38.6934H41.9716L56.9417 0.307767H77.1687L92.338 38.6934H78.7653L76.1699 32.0898H58.2718ZM67.3211 7.98442H67.1878L61.1326 24.6184H73.5084L67.3211 7.98442ZM115.02 15.3545C129.792 16.1729 133.45 17.6056 133.45 26.4096C133.45 32.7549 133.784 38.9988 111.828 38.9988C99.1196 38.9988 90.6694 38.7936 90.6694 26.2044H103.444C103.444 30.196 105.308 30.6052 111.828 30.6052C118.081 30.6052 120.145 30.2963 120.145 27.0723C120.145 23.7469 119.413 23.7976 113.159 23.491L110.23 23.3366C97.9216 22.6715 90.7366 22.7234 90.7366 11.719C90.7366 0.715775 98.7871 0 111.828 0C122.74 0 132.054 0.153295 132.054 10.7473V12.3334H119.278C119.278 8.39244 117.15 8.39243 111.828 8.39243C104.642 8.39243 104.043 9.51858 104.043 11.6683C104.043 14.7389 105.973 14.8415 109.499 15.0455L115.02 15.3545ZM149.94 38.6922H136.635V0.307767H149.94V38.6922ZM152.934 24.9249V14.075C152.934 2.25347 162.515 0.00117856 176.021 0.00117856C189.526 0.00117856 199.107 2.25347 199.107 14.075V24.9249C199.107 36.7465 189.526 39 176.021 39C162.515 39 152.934 36.7465 152.934 24.9249ZM185.402 23.7976V15.1493C185.402 9.46905 182.943 8.90539 176.022 8.90539C169.103 8.90539 166.842 9.46905 166.641 15.1493V23.7976C166.842 29.5298 169.103 30.0946 176.022 30.0946C182.943 30.0946 185.402 29.5309 185.402 23.7976ZM205.486 35.1947H203.99L202.859 33.4164H202.845V35.1947H201.645V30.5769H203.438C204.35 30.5769 205.043 31.0097 205.043 31.9978C205.043 32.6334 204.688 33.1841 204.033 33.3009L205.486 35.1947ZM202.845 32.6464H202.963C203.355 32.6464 203.795 32.5733 203.795 32.071C203.795 31.5686 203.355 31.4955 202.963 31.4955H202.845V32.6464Z" fill="#353132"/>
<path d="M203.304 36.415C204.225 36.415 205.061 36.0424 205.665 35.4363C206.134 34.9698 206.453 34.3746 206.583 33.7262C206.713 33.0778 206.647 32.4054 206.394 31.7943C206.141 31.1833 205.712 30.6612 205.162 30.2943C204.612 29.9275 203.965 29.7323 203.304 29.7336C202.865 29.733 202.43 29.819 202.024 29.9868C201.619 30.1545 201.25 30.4006 200.94 30.7111C200.629 31.0215 200.383 31.3902 200.215 31.7959C200.048 32.2016 199.962 32.6365 199.962 33.0755C199.962 33.9965 200.337 34.8325 200.941 35.4363C201.547 36.0412 202.381 36.415 203.304 36.415ZM206.09 35.862C205.725 36.2285 205.291 36.5191 204.812 36.7172C204.334 36.9154 203.822 37.017 203.304 37.0164C202.786 37.0175 202.273 36.916 201.794 36.7179C201.316 36.5197 200.881 36.2289 200.515 35.862C200.149 35.4963 199.858 35.062 199.66 34.5838C199.462 34.1056 199.36 33.5931 199.361 33.0755C199.361 31.9859 199.803 31.0001 200.515 30.2891C200.881 29.9222 201.316 29.6312 201.794 29.4329C202.273 29.2346 202.786 29.1328 203.304 29.1334C204.391 29.1334 205.377 29.5756 206.09 30.2891C206.804 31.0013 207.245 31.9859 207.245 33.0755C207.245 34.1616 206.805 35.1474 206.09 35.862Z" fill="#353132"/>
</svg>
