<svg viewBox="0 0 439 42" fill="none" xmlns="http://www.w3.org/2000/svg">
<g clip-path="url(#clip0_2_296)">
<path d="M372.037 26.9264L378.381 8.31293L384.523 26.9264H372.037ZM306.249 19.7138V2.56477H309.222C314.136 2.56477 317.433 5.76356 317.433 11.5468C317.433 14.7379 314.942 19.7116 309.768 19.7116L306.249 19.7138ZM274.116 26.9264L280.462 8.31293L286.604 26.9264H274.116ZM438.898 1.74752H420.09V2.56587H423.198V32.0208L404.067 1.74752H395.845V2.56587H398.947V39.8148H393.748L380.428 0.0252686L366.668 39.8137H361.769V2.56587H364.608V1.74752H357.189L346.62 32.815L335.548 1.74752H327.995V2.56587H331.103V39.8148H325.402C323.441 39.8148 321.824 38.0619 321.824 35.3106V29.5285C321.824 24.7544 320.157 20.9479 314.842 20.1362C319.261 19.5361 322.503 15.5881 322.503 11.3329C322.503 5.92262 318.498 1.75081 310.527 1.75081H298.67V2.56916H301.771V39.8181H295.827L282.507 0.0252686L268.75 39.8137H266.195V40.6321H273.291V39.8137H269.72L273.839 27.7448H286.876L290.861 39.8137H285.979V40.6321H311.052V39.8137H306.251V20.5344H309.77C314.601 20.5344 317.138 22.5001 317.138 27.3345V30.722C317.138 38.7091 322.275 40.6332 325.021 40.6332H335.312V39.8148H331.926V5.35329L344.955 41.0489L357.304 4.1872V39.8148H354.196V40.6332H371.212V39.8148H367.644L371.76 27.7459H384.797L388.78 39.8148H383.9V40.6332H402.886V39.8148H399.767V3.85811L424.02 41.9748V2.56587H431.317V39.8148H428.206V40.6332H438.9V39.8148H435.792L435.79 2.56587L438.9 2.56697L438.898 1.74752ZM16.9679 2.56587C23.5619 2.56587 25.208 6.38225 25.208 11.8507H25.9718V1.74752H0V2.56587H3.38305V39.8148H0V40.6332H25.9729V29.4363H25.209C25.209 35.2185 23.7964 39.8148 14.2697 39.8148H7.85653V21.4097H10.6127C14.8845 21.4097 16.9142 23.6147 16.9142 27.3619H17.678V14.637H16.9142C16.9142 18.4391 14.8845 20.5903 10.6127 20.5903H7.85653V2.56587H16.9679ZM186.245 40.8021C175.921 40.8021 175.413 27.2972 175.413 21.2167C175.413 15.1811 176.101 1.63124 186.245 1.63124C196.367 1.63124 197.131 15.1833 197.131 21.2167C197.131 27.2523 196.552 40.8021 186.245 40.8021ZM186.245 0.812898C176.085 0.812898 169.412 12.1337 169.412 21.22C169.412 31.1334 176.634 41.57 186.245 41.57C195.856 41.57 203.076 31.7685 203.076 21.22C203.077 12.1337 195.858 0.812898 186.245 0.812898ZM109.687 40.8021C99.3622 40.8021 98.8559 27.2972 98.8559 21.2167C98.8559 15.1811 99.543 1.63124 109.687 1.63124C119.81 1.63124 120.571 15.1833 120.571 21.2167C120.572 27.2523 119.991 40.8021 109.687 40.8021ZM109.687 0.812898C99.5266 0.812898 92.8536 12.1337 92.8536 21.22C92.8536 31.1334 100.075 41.57 109.687 41.57C119.296 41.57 126.52 31.7685 126.52 21.22C126.52 12.1337 119.3 0.812898 109.687 0.812898ZM135.548 19.7138V2.56477H138.521C143.436 2.56477 146.733 5.76356 146.733 11.5468C146.733 14.7379 144.239 19.7116 139.067 19.7116L135.548 19.7138ZM157.285 2.56477L160.394 2.56587V39.8148H154.698C152.735 39.8148 151.124 38.0619 151.124 35.3106V29.5285C151.124 24.7544 149.455 20.9479 144.142 20.1362C148.563 19.535 151.806 15.5881 151.806 11.3351C151.806 5.92262 147.798 1.75081 139.828 1.75081H127.971V2.56916H131.072V39.8181H127.971V40.6365H140.347V39.8181H135.547V20.5344H139.065C143.897 20.5344 146.431 22.4431 146.431 27.3345V30.722C146.431 38.8287 151.569 40.6332 154.316 40.6332H167.979V39.8148H164.87V2.56587L167.979 2.56697V1.74752H157.285V2.56477ZM76.0995 23.7013H73.8342V2.56477H76.0995C81.7226 2.56477 85.2393 5.46847 85.2393 13.2395C85.2393 20.2568 82.5357 23.7013 76.0995 23.7013ZM69.306 39.8137H61.9656V2.56587H69.306V39.8137ZM77.1921 1.74752H57.3815L46.8181 32.815L35.7396 1.74752H28.1943V2.56587H31.3012V39.8148H28.1943V40.6332H35.5018V39.8148H32.1209V5.35219L45.1468 41.0489L57.4921 4.18939V39.8148H54.3842V40.6332H76.9444V39.8148H73.8342V24.523H77.1899C86.07 24.523 90.367 19.5767 90.367 13.2449C90.367 7.13588 86.584 1.74752 77.1921 1.74752ZM267.149 15.5146C267.201 15.7713 267.218 16.017 267.218 16.2518C267.218 18.8329 264.469 20.1548 264.469 20.1548H212.671C212.671 20.1548 209.921 18.8329 209.921 16.2518C209.921 16.017 209.944 15.7713 209.992 15.5146H229.215L231.119 17.7634L231.562 15.5146H244.571L246.283 17.4486L247.921 15.5146H267.149ZM242.239 8.73088L243.771 13.3996H231.572L231.756 8.73088H242.239ZM272.858 8.7616C272.907 9.01829 272.927 9.26511 272.927 9.50315C272.927 12.0821 270.181 13.4029 270.181 13.4029H249.704L253.627 8.76379L272.858 8.7616ZM223.51 8.7616L227.432 13.4007H206.961C206.961 13.4007 204.213 12.0789 204.213 9.49877C204.213 9.26182 204.236 9.01829 204.285 8.7594L223.51 8.7616ZM278.569 2.00751C278.622 2.2631 278.641 2.51321 278.641 2.74797C278.641 5.32586 275.891 6.64882 275.891 6.64882H255.414L259.34 2.0097H278.565M245.181 5.57049C244.096 5.57049 243.467 5.73613 243.117 6.87151H231.626L231.623 6.73767C231.6 4.38356 232.833 2.13147 232.899 2.02067C232.98 1.88135 233.081 1.74752 233.261 1.74752L243.968 1.74862C245.05 1.74862 247.644 3.27122 247.88 5.57049H245.181ZM201.249 6.64772C201.249 6.64772 198.503 5.32477 198.503 2.74797C198.503 2.51212 198.526 2.2653 198.576 2.00641H217.796L221.723 6.64553L201.249 6.64772ZM242.85 28.799L244.048 32.2962H240.606L241.839 28.799H242.85ZM245.134 35.4938L245.405 36.2979H243.91V37.0307H248.991V36.2979H247.51L247.227 35.4938H250.196C250.211 35.5553 250.264 35.8515 250.264 36.2935C250.264 38.2944 249.155 39.7962 247.389 40.6321L229.732 40.6299C227.245 39.4364 226.867 37.3686 226.867 36.2551C226.867 35.8328 226.923 35.5465 226.935 35.4938H228.245C229.181 36.5842 230.452 37.3444 231.991 37.3444C233.821 37.3444 234.063 36.2562 235.072 36.2562C235.303 36.2562 235.508 36.4745 235.562 37.0362H236.288V35.5004H238.672L238.383 36.3034H237.317V37.0362H240.254V36.3023H239.187L239.474 35.4982L245.134 35.4938ZM232.217 23.6355C232.868 23.6355 233.343 23.822 233.709 23.9997C233.883 24.0853 234.263 24.3145 234.45 24.3145C234.838 24.3145 235.006 24.1708 235.09 23.6893H235.747V27.1864H241.649L243.016 23.37L244.341 27.1864H258.828C261.319 25.982 261.682 24.0392 261.682 22.8951C261.682 22.4639 261.632 22.1579 261.624 22.0482H215.529C215.489 22.2733 215.47 22.5018 215.474 22.7305C215.474 23.8297 215.836 25.9633 218.379 27.1886H227.158C228.065 25.2832 229.752 23.6355 232.217 23.6355ZM221.235 28.7979C221.216 28.8209 221.161 29.1105 221.161 29.5438C221.161 30.6408 221.549 32.6779 224.004 33.8637C225.452 33.8747 225.167 33.8813 227.193 33.8835C226.653 32.7777 226.366 31.5667 226.366 30.5004C226.366 29.9749 226.436 29.3946 226.582 28.8034L221.235 28.7979ZM240.048 33.8769L240.358 33.0026H244.292L244.588 33.8769H240.048ZM244.905 28.799L255.917 28.8012C255.924 28.8286 255.973 29.0941 255.973 29.4956C255.973 30.5816 255.618 32.6746 253.12 33.8769H246.659L244.905 28.799ZM241.076 28.799L228.847 28.7968C228.799 29.3619 228.776 29.9289 228.78 30.496C228.78 31.5327 228.84 32.7799 229.12 33.8791L234.373 33.8769V32.0164L233.187 32.0142V31.2836H237.301V32.0142L236.291 32.0164V33.8769H239.255L241.076 28.799Z" fill="black"/>
<path d="M233.998 35.4938C233.794 35.8437 233.499 36.1327 233.146 36.3312C232.793 36.5298 232.393 36.6307 231.988 36.6237C230.982 36.6237 230.287 36.1794 229.812 35.4938H233.998ZM229.112 27.1886C229.502 25.6572 230.368 24.3694 232.231 24.3694C233.277 24.3694 234.472 25.2009 234.936 27.1886H229.112Z" fill="black"/>
</g>
<defs>
<clipPath id="clip0_2_296">
<rect width="438.9" height="42" fill="black"/>
</clipPath>
</defs>
</svg>
