<svg viewBox="0 0 171 32" fill="none" xmlns="http://www.w3.org/2000/svg">
<g clip-path="url(#clip0_2_291)">
<path d="M40.838 28.4216C38.8937 28.4216 38.0203 27.9663 38.0203 25.6627V6.49267C38.0203 4.2005 38.7528 3.91377 40.6971 3.91377H41.9233V1.54564H29.2264V3.91377H30.5934C32.4112 3.91377 33.2565 4.5335 33.2565 6.49267V25.6627C33.2565 27.6179 32.1999 28.4216 30.3821 28.4216H29.1565V30.7857H42.008V28.4216H40.838ZM83.8746 28.4216C81.9297 28.4216 81.0564 27.9663 81.0564 25.6627V6.49267C81.0564 4.2005 81.7894 3.91377 83.7338 3.91377H84.9737V1.54564H72.2768V3.91377H73.6301C75.4478 3.91377 76.2794 4.5335 76.2794 6.49267V25.6627C76.2794 27.6179 75.2222 28.4216 73.433 28.4216H72.1926V30.7857H85.0441V28.4216H83.8746ZM44.6998 1.54564V9.25034H46.8978V7.64532C46.8978 5.70557 47.6022 3.91377 50.2373 3.91377H54.7187V25.6627C54.7187 27.6179 53.5492 28.4216 51.7309 28.4216H50.4062V30.7857H63.7938V28.4216H62.4692C60.6651 28.4216 59.4957 27.6179 59.4957 25.6627V3.91377H63.9628C66.5978 3.91377 67.3028 5.70557 67.3028 7.64532V9.25034H69.5008V1.54507L44.6998 1.54564ZM109.099 22.8497V23.3666C109.099 25.7953 108.423 28.4216 103.223 28.4216H94.204L110.987 3.91206V1.54621H88.8211V9.46282H91.0621V8.49352C91.0621 5.99859 92.2173 3.91263 95.6134 3.91263C97.6711 3.91263 105.027 3.93719 105.027 3.93719L88.2999 28.4227V30.7851H111.298V22.8497H109.099ZM136.254 22.8114V23.5922C136.254 26.1997 134.972 28.4216 131.731 28.4216H123.022V16.9659H128.264C130.378 16.9659 130.857 18.7434 130.857 20.0012V21.2184H133.154V10.2573H130.857V11.2329C130.857 12.4838 130.378 14.2631 128.264 14.2631H123.022V3.9132H131.336C135.494 3.9132 135.592 7.37629 135.592 8.66088V9.29204H137.804V1.54507H114.482V3.9132H115.004C117.019 3.9132 118.062 4.15767 118.062 5.97117V26.0055C118.062 28.112 116.667 28.4216 115.37 28.4216H114.623V30.7851H138.354V22.8114H136.254ZM160.224 1.54564V3.91377H160.887C163.198 3.91377 164.03 4.69801 164.03 6.68401V22.9039L149.36 1.54621H141.665V3.91434H142.384C143.807 3.91434 144.921 4.49181 144.921 6.7417V25.8729C144.921 27.811 143.525 28.4221 142.455 28.4221H141.468V30.7863H151.459V28.4221H150.515C149.444 28.4221 147.838 28.1497 147.838 25.8729V8.00231L163.508 30.7851H166.933V6.68401C166.933 4.69801 167.75 3.91377 170.061 3.91377H170.667V1.54564H160.224ZM16.3044 29.2218C10.4702 29.2218 5.84791 23.6773 5.84791 16.1737C5.84791 8.04057 9.17362 2.77711 15.7408 2.77711C21.1798 2.77711 23.3361 5.56449 24.1814 9.04015H26.2529C25.9997 6.97646 25.6332 3.38428 25.6613 2.58577C23.8435 2.20422 20.4611 0.466675 15.4024 0.466675C6.45441 0.466675 0 6.57206 0 16.1742C0 25.5588 7.45435 31.5334 15.3176 31.5334C18.9537 31.5334 22.5612 30.6857 25.6052 28.4216C25.746 27.6699 26.2529 25.4743 26.7746 23.7053H24.5056C22.8149 27.7104 19.6862 29.2218 16.3044 29.2218Z" fill="white"/>
</g>
<defs>
<clipPath id="clip0_2_291">
<rect width="170.667" height="32" fill="white"/>
</clipPath>
</defs>
</svg>
