<svg viewBox="0 0 279 113" fill="none" xmlns="http://www.w3.org/2000/svg">
<g clip-path="url(#clip0_2_301)">
<path d="M93.9836 0.40625C90.4695 0.65625 85.0729 1.53125 84.1944 2C83.912 2.15625 83.4414 2.28125 83.159 2.28125C82.8766 2.28125 81.2765 2.9375 79.6136 3.75C76.9781 5.03125 76.1623 5.65625 73.5895 8.21875C68.7263 13.0625 66.4359 17.9375 65.4946 25.5C65.0867 28.9375 65.0554 29.9687 65.4005 32.8437C66.0907 38.5312 67.4085 42.5 69.9813 46.5C72.9306 51.0937 78.2017 55.2187 83.3159 56.9687C89.5282 59.0625 91.0029 59.2187 108.071 59.375C116.574 59.4375 123.884 59.4375 124.292 59.3437C124.7 59.2187 125.045 58.9375 125.045 58.6875C125.045 58 124.01 57.5937 122.159 57.5937C119.994 57.5625 118.205 56.5625 117.358 54.9062C116.762 53.7187 116.731 53.0625 116.731 29.625C116.731 6.125 116.731 5.53125 117.358 4.5C118.3 2.875 119.304 2.34375 122.159 1.84375C125.014 1.375 125.359 1.21875 124.763 0.625C124.324 0.1875 99.7567 8.9407e-08 93.9836 0.40625ZM103.898 3.96875C105.467 4.1875 107.036 4.5625 107.412 4.75L108.103 5.125L108.04 29.875L107.946 54.625L107.004 55.0625C106.189 55.4687 104.871 55.6562 99.6625 56.25C96.3681 56.5937 90.5323 55.125 87.0496 53.0625C84.6337 51.625 81.3079 48.5625 79.896 46.5C78.892 45 77.2918 41.7187 76.6329 39.7812C75.7544 37.1562 75.3151 33.6875 75.3151 29.4687C75.3465 24.1562 76.0682 20.7187 78.1076 16.0312C79.2998 13.3125 83.4728 8.68749 86.2966 6.90625C90.9088 4.03125 97.278 2.96875 103.898 3.96875ZM130.473 0.40625C129.093 0.968749 129.814 1.71875 132.105 2.125C134.74 2.625 135.776 3.96875 137.909 9.78124C138.631 11.75 139.384 13.875 139.635 14.4687C140.294 16.2812 140.921 18 141.329 19.1562C141.549 19.75 142.302 21.7812 142.992 23.6875C143.682 25.5625 144.435 27.6875 144.655 28.375C144.875 29.0625 145.722 31.4375 146.538 33.6875C147.322 35.9062 149.393 41.75 151.118 46.6562C152.844 51.5625 154.444 56.0625 154.664 56.6562C154.915 57.25 155.291 58.2187 155.511 58.7812C155.95 60 156.609 60.7187 157.205 60.7187C157.676 60.7187 158.931 58.2187 158.931 57.3125C158.931 57.0312 159.119 56.5312 159.37 56.1875C159.59 55.8437 159.872 55.2187 159.966 54.7812C160.155 53.7812 160.813 52 161.221 51.1875C161.41 50.8437 161.661 50.1562 161.786 49.625C161.912 49.125 162.539 47.2812 163.167 45.5625C163.794 43.8437 164.422 42.0937 164.578 41.6562C164.735 41.2187 165.771 38.1875 166.932 34.9375C168.093 31.6562 169.379 27.9062 169.85 26.5625C171.042 23.0937 171.387 23.25 173.113 28.2812C173.897 30.5625 174.995 33.625 175.529 35.0937C176.093 36.5625 176.878 38.7187 177.286 39.9375C177.693 41.125 178.321 42.9062 178.697 43.8437C179.074 44.7812 179.701 46.5312 180.109 47.75C180.549 48.9375 181.082 50.5 181.333 51.1875C183.372 56.7187 184.125 58.7812 184.251 59.4062C184.659 61.125 186.573 60.9062 187.137 59.0625C187.294 58.5312 188.8 54.125 190.463 49.3125C192.126 44.5 194.04 38.9375 194.699 36.9687C195.389 35 196.425 31.9687 197.052 30.25C197.648 28.5312 198.715 25.5 199.405 23.5312C200.096 21.5625 201.57 17.3125 202.668 14.0625C203.798 10.8437 205.053 7.4375 205.461 6.53125C206.559 4.1875 208.253 2.59375 210.387 1.96875C212.238 1.4375 212.834 0.625 211.579 0.28125C210.638 0.03125 196.33 0.03125 195.389 0.28125C194.04 0.65625 194.73 1.46875 196.738 1.90625C199.186 2.4375 200.001 2.90625 200.786 4.25C201.445 5.34375 201.445 5.375 200.849 7.65625C200.252 10.0312 199.154 13.375 196.738 20.25C195.358 24.125 193.318 30.0312 190.055 39.625C188.047 45.5 187.922 45.4687 185.757 39.3125C184.878 36.7187 183.812 33.7812 183.435 32.75C183.059 31.7187 182.4 29.875 181.992 28.6875C181.584 27.4687 180.956 25.7187 180.58 24.7812C180.203 23.8437 179.764 22.625 179.639 22.125C179.356 21.1875 179.043 20.2812 177.756 16.9687C177.38 16.0312 176.972 14.8125 176.815 14.3125C176.689 13.7812 176.438 13.0312 176.282 12.5937C175.246 10.0625 174.807 8.125 174.807 6.125C174.775 4.21875 174.87 3.78125 175.497 3.125C176.219 2.34375 178.258 1.65625 179.764 1.65625C180.705 1.65625 181.082 1.15625 180.58 0.5625C180.235 0.15625 178.478 0.09375 169.599 0.09375C163.763 0.09375 158.774 0.1875 158.492 0.28125C158.209 0.375 157.99 0.65625 157.99 0.90625C157.99 1.40625 158.743 1.8125 160.186 2.09375C161.786 2.40625 163.637 3.8125 164.61 5.46875C165.112 6.3125 166.367 9.31249 167.402 12.1562L169.285 17.375L168.218 20.5312C167.59 22.25 166.241 26.1562 165.206 29.1562C164.139 32.1562 163.072 35.1875 162.853 35.875C161.472 39.9375 159.809 44.3437 159.558 44.5937C159.245 44.9062 159.119 44.625 157.644 40.5625C157.174 39.1875 156.327 36.875 155.762 35.4062C155.229 33.9375 154.381 31.5625 153.911 30.0937C153.409 28.625 152.216 25.1875 151.212 22.4375C146.13 8.09374 145.534 5.96875 146.067 4.34375C146.538 2.9375 146.977 2.59375 149.299 1.96875C151.369 1.40625 151.997 0.625 150.71 0.28125C149.581 7.45058e-08 131.258 0.09375 130.473 0.40625ZM66.4673 78.75C65.6201 79.3125 65.4946 80.75 66.2476 81.4687C66.9065 82.125 68.036 82.0937 68.6635 81.4062C70.0754 79.8437 68.1615 77.5625 66.4673 78.75ZM93.6698 79.375L91.3167 80.4687L92.1952 80.875C92.6972 81.0625 93.2306 81.4375 93.3874 81.6875C93.5443 81.9375 93.6698 86.7812 93.6698 92.4687C93.6698 102.406 93.6384 102.844 93.0423 103.375C91.7873 104.5 92.2265 104.781 95.2386 104.781C98.2193 104.781 98.5644 104.594 97.529 103.437C97.027 102.906 96.9642 101.687 96.8074 90.625C96.7132 82.9062 96.525 78.4062 96.3367 78.3437C96.1799 78.3125 94.9562 78.75 93.6698 79.375ZM174.681 79.3125C172.516 80.3125 171.983 81.0312 173.364 81.0312C173.709 81.0312 174.117 81.3125 174.305 81.625C174.493 82.0312 174.619 86 174.619 92.3749C174.619 102.031 174.587 102.531 173.991 103.312C172.924 104.625 173.144 104.781 176.187 104.781C179.199 104.781 179.639 104.5 178.384 103.375C177.788 102.844 177.756 102.344 177.693 90.625C177.631 82.8125 177.474 78.4062 177.286 78.3437C177.129 78.3125 175.936 78.75 174.681 79.3125ZM186.008 78.8125C184.627 79.9687 185.443 81.9687 187.263 81.9687C188.769 81.9687 189.334 79.5937 188.047 78.7187C187.169 78.0937 186.855 78.0937 186.008 78.8125ZM164.265 79.1562C163.48 79.5 162.602 79.8437 162.288 79.9687C161.566 80.25 161.786 80.8437 162.665 80.9687C163.072 81.0312 163.48 81.4062 163.669 81.875C163.857 82.375 163.951 86.6874 163.888 92.7812C163.794 102.75 163.794 102.875 163.072 103.594C162.696 104.031 162.476 104.469 162.602 104.562C162.916 104.906 168.281 104.812 168.5 104.5C168.595 104.344 168.344 103.969 167.967 103.687L167.245 103.219L167.088 90.9375C166.932 78.9687 166.932 78.6875 166.304 78.625C165.959 78.5937 165.049 78.8125 164.265 79.1562ZM0.641455 79.75C0.547328 79.9375 0.861083 80.4062 1.33172 80.8437L2.21023 81.6562L2.30436 91.9374L2.39848 102.219L1.39447 103.344C0.610079 104.25 0.515953 104.5 0.892459 104.656C1.17484 104.75 4.40651 104.781 8.07745 104.719C15.3879 104.562 16.3292 104.375 18.9961 102.531C21.0355 101.125 22.3847 99.4374 23.3573 97.1874C24.4868 94.4999 24.5182 89.9375 23.4201 87.1875C22.3219 84.4375 20.4708 82.375 18.0549 81.1562C16.2665 80.25 15.5448 80.0937 11.9994 79.8125C7.04206 79.375 0.892459 79.375 0.641455 79.75ZM14.3839 82.0937C16.392 83.0625 17.6784 84.4062 18.902 86.7499C19.655 88.2499 19.7491 88.6874 19.7491 92.1249C19.7805 95.7812 19.7491 95.9687 18.7451 97.9687C16.8312 101.875 13.5995 103.687 9.14421 103.469C7.19893 103.344 6.57142 103.187 6.25767 102.75C5.66153 101.937 5.63016 82.6562 6.22629 81.9062C6.82243 81.1562 7.35581 81.0312 10.0855 81.1249C12.0935 81.2187 13.0034 81.4062 14.3839 82.0937ZM111.24 79.9062C111.24 80.1562 111.522 80.5625 111.836 80.7812C112.526 81.2812 113.342 82.9374 114.691 86.8124C115.225 88.3437 115.852 90.1249 116.072 90.7187C116.292 91.3124 116.668 92.3124 116.856 92.9062C117.484 94.6562 118.676 97.9062 119.398 99.7812C119.774 100.719 120.151 101.781 120.245 102.125C120.339 102.469 120.684 103.375 120.998 104.094C121.531 105.219 121.688 105.406 122.065 105.094C122.316 104.875 122.724 104.062 122.975 103.25C124.23 99.2187 127.304 90.8749 127.618 90.6562C128.151 90.3437 128.434 90.6249 128.779 91.7499C128.936 92.3124 129.783 94.7812 130.693 97.2812C131.571 99.7812 132.513 102.437 132.764 103.219C133.046 104 133.454 104.812 133.674 105.062C134.019 105.406 134.144 105.375 134.489 104.75C134.897 103.969 136.811 98.7812 137.282 97.1249C137.407 96.5937 137.847 95.4062 138.223 94.4687C138.568 93.5312 139.415 91.1249 140.106 89.1562C142.49 82.1875 142.616 81.875 143.776 80.7812C144.184 80.4062 144.435 79.9375 144.341 79.7812C144.09 79.4062 139.572 79.375 139.353 79.75C139.258 79.875 139.541 80.3437 139.949 80.7187C140.388 81.125 140.733 81.6562 140.733 81.9375C140.733 82.4062 140.231 84.0625 139.698 85.4062C139.541 85.8437 139.29 86.5937 139.164 87.1249C139.007 87.6249 138.6 88.8437 138.223 89.7812C137.847 90.7187 137.439 91.9062 137.282 92.4374C137.062 93.2812 136.623 94.4687 135.431 97.4062C134.991 98.5312 134.709 98.2812 133.893 95.8749C133.517 94.8437 132.575 92.1562 131.76 89.9374C129.187 82.6875 129.03 81.8437 130.222 80.7187C130.662 80.3125 131.007 79.875 131.007 79.7187C131.007 79.5937 129.187 79.4687 126.928 79.4687C124.7 79.4687 122.849 79.5625 122.849 79.6562C122.849 79.75 123.445 80.4374 124.198 81.1249C125.171 82.1249 125.704 83 126.238 84.6562C127.053 87.0937 127.085 86.9687 125.516 91.3437C123.79 96.2812 123.1 97.9374 122.786 97.8437C122.504 97.7499 121.029 94.2499 120.37 92.1249C120.213 91.5937 119.555 89.7812 118.927 88.0624C116.825 82.2499 116.731 81.8437 117.39 80.9062C117.735 80.4687 118.174 80.0937 118.394 80.0937C118.582 80.0937 118.77 79.9687 118.77 79.8437C118.77 79.6875 117.076 79.5312 115.005 79.5C111.836 79.4375 111.24 79.5 111.24 79.9062ZM234.546 84.1875C234.138 85.0625 233.134 86.3437 232.35 87.0312C231.032 88.2187 230.969 88.3124 231.534 88.6562C233.322 89.6874 233.291 89.5937 233.291 96.6874V103.281L234.263 104.187C235.958 105.75 238.123 105.344 239.66 103.187C240.664 101.812 240.664 101.781 239.284 102.469C237.997 103.094 236.805 102.812 236.428 101.781C236.02 100.781 236.02 90.0937 236.397 89.5C236.585 89.2187 237.275 88.9999 238.06 88.9687C238.813 88.9374 239.503 88.9062 239.66 88.875C239.786 88.8437 239.88 88.5624 239.88 88.2187C239.88 87.6562 239.66 87.5937 238.185 87.5937C236.209 87.5937 236.115 87.4687 236.115 84.5937C236.115 82.1249 235.644 82 234.546 84.1875ZM31.6091 87.5937C28.5657 88.3124 26.5576 92.5 28.9735 93.125C30.1658 93.4062 30.7306 92.8437 30.9816 91.1874C31.2639 89.1874 32.1111 88.375 33.774 88.4062C35.4369 88.4687 36.4723 89.6249 36.6292 91.6562C36.7547 93.0937 36.1271 94.1562 35.1859 94.1562C34.9349 94.1562 34.3387 94.3437 33.8367 94.5937C33.3661 94.8437 32.268 95.3749 31.4208 95.7812C27.7813 97.5312 26.4007 100.094 27.6871 102.812C28.9422 105.469 32.8013 105.875 35.2173 103.562C36.1585 102.687 36.4095 102.719 37.1625 104C38.0097 105.469 39.3588 105.5 41.0531 104.125C42.4022 103 42.5591 102.469 41.3982 102.687C40.1746 102.906 39.9236 101.875 39.7353 95.3437C39.5471 89.7812 39.5157 89.4687 38.8254 88.75C37.6332 87.4687 34.3387 86.9374 31.6091 87.5937ZM36.8174 97.7499C36.9115 100.719 36.535 101.594 34.9035 102.406C33.1151 103.25 32.2052 103.156 31.1384 101.969C30.3541 101.094 30.2599 100.75 30.3854 99.6562C30.5737 98.2187 32.017 96.7499 34.2132 95.7187C36.4409 94.6874 36.7233 94.8749 36.8174 97.7499ZM47.0772 87.8125C46.3869 88.0625 45.5084 88.3437 45.1005 88.4375C44.0024 88.6875 43.971 89.0937 45.0064 90.0624L45.9791 90.9687V96.9374C45.9791 102.531 45.9477 102.937 45.3515 103.437C44.0965 104.5 44.5358 104.781 47.4851 104.781C49.0225 104.781 50.3716 104.687 50.4658 104.594C50.5913 104.469 50.3089 103.969 49.901 103.469C49.148 102.562 49.1166 102.406 49.1166 97.5624C49.1166 91.6874 49.3049 91.0624 51.5011 90.0937C53.3837 89.2812 54.2622 89.3125 55.0779 90.1562C56.1761 91.3125 56.3957 92.7812 56.2702 97.9374C56.2075 102.062 56.082 102.937 55.6427 103.437C54.6073 104.562 54.9211 104.781 57.6821 104.781C59.1254 104.781 60.3804 104.687 60.5059 104.594C60.6 104.469 60.3804 103.969 60.0039 103.469C59.3764 102.625 59.3136 102.094 59.1568 96.4062C58.9999 89.9687 58.843 89.3124 57.4625 88.1562C55.8937 86.8749 53.1013 87.1562 51.1874 88.8437C49.8696 90.0312 49.4617 90.0312 49.2421 88.8437C48.9597 87.4687 48.5205 87.2812 47.0772 87.8125ZM66.0594 88.0624C64.9612 88.4687 63.9886 88.9062 63.9572 89.0625C63.8945 89.2187 64.271 89.6562 64.8044 90.0312L65.7456 90.7499V96.9374C65.7456 102.969 65.7142 103.156 65.0554 103.594C63.8631 104.375 64.6475 104.781 67.4399 104.781C68.8518 104.781 70.1382 104.687 70.2323 104.562C70.3578 104.469 70.1382 104.031 69.7617 103.594C69.0714 102.875 69.04 102.656 68.9459 95.2499C68.8832 89.6874 68.7577 87.625 68.4753 87.5C68.2557 87.4375 67.1889 87.6874 66.0594 88.0624ZM79.8332 87.5624C77.7624 87.9999 75.8799 89.6874 74.8131 92.1249C73.8405 94.2812 73.8405 98.6874 74.8131 100.781C77.1035 105.781 83.0021 106.937 86.4221 103.062C87.6143 101.719 88.4615 99.9062 88.1477 99.4374C88.0222 99.2499 87.5516 99.5937 87.0182 100.219C85.7946 101.687 84.6337 102.281 82.8453 102.281C79.7705 102.281 77.1663 99.4999 76.9781 95.9687L76.8839 94.3124L82.6884 94.1562L88.4929 93.9999L88.3987 92.9374C88.2732 91.3437 87.1123 89.4687 85.6063 88.4062C84.163 87.4062 82.0295 87.0937 79.8332 87.5624ZM82.3746 88.9999C84.4454 90.0624 85.2612 92.3437 83.7552 92.9062C82.8766 93.2499 78.3272 93.3437 77.5428 93.0312C76.6015 92.6562 76.9467 91.1875 78.3272 89.8125C79.7705 88.4062 80.8059 88.1874 82.3746 88.9999ZM150.616 87.4374C150.459 87.4999 149.926 87.6249 149.455 87.7187C148.389 87.9687 146.538 89.5312 145.596 91.0312C143.337 94.6249 144.122 101.406 147.071 103.625C150.208 106.031 153.66 105.969 156.138 103.5C157.142 102.5 158.617 99.9999 158.617 99.2812C158.617 98.8124 157.739 99.3749 156.421 100.719C154.978 102.187 154.789 102.281 153.283 102.281C151.369 102.281 150.303 101.781 148.828 100.156C147.542 98.7187 146.349 94.8749 147.071 94.4374C147.291 94.2812 149.989 94.1562 153.032 94.1562C156.076 94.1562 158.648 94.0312 158.743 93.9062C158.837 93.7499 158.68 92.9062 158.366 91.9999C157.739 89.9999 155.919 88.0624 154.287 87.5937C153.189 87.3124 151.275 87.2187 150.616 87.4374ZM153.095 89.3437C154.413 90.3437 154.946 92.0624 154.162 92.8437C153.628 93.3749 148.232 93.3437 147.51 92.8125C147.008 92.4375 146.977 92.3124 147.416 91.3124C148.106 89.6249 149.738 88.4687 151.15 88.6249C151.777 88.7187 152.656 89.0312 153.095 89.3437ZM185.537 88.125C184.345 88.5625 183.404 89.0312 183.404 89.1875C183.404 89.3437 183.749 89.6562 184.188 89.8437C185.412 90.4062 185.663 91.8437 185.537 97.7187C185.443 102.781 185.412 102.969 184.722 103.562C184.314 103.875 184.063 104.281 184.188 104.469C184.439 104.906 189.585 104.875 189.836 104.437C189.961 104.25 189.773 103.906 189.396 103.656C188.769 103.187 188.738 102.969 188.738 95.7187C188.738 89.3437 188.675 88.1875 188.236 87.7812C187.985 87.5 187.734 87.2812 187.702 87.3125C187.671 87.3125 186.698 87.6875 185.537 88.125ZM196.111 87.8437C195.421 88.1562 194.479 88.5312 194.009 88.6562C192.973 88.9062 192.879 89.3437 193.758 89.6249C195.138 90.0624 195.358 91.2812 195.264 97.2812C195.17 102.062 195.107 102.937 194.636 103.437C193.569 104.594 193.915 104.781 196.895 104.781C199.154 104.781 199.719 104.687 199.719 104.312C199.719 104.062 199.437 103.719 199.091 103.531C198.495 103.219 198.464 102.875 198.464 97.4687C198.464 91.0625 198.433 91.1562 201.037 90C202.731 89.2187 203.61 89.3124 204.551 90.4062C205.555 91.6249 205.774 93.1249 205.618 98.4687C205.523 102.5 205.461 102.906 204.802 103.594C204.425 104.031 204.206 104.469 204.331 104.562C204.425 104.687 205.712 104.781 207.124 104.781C209.916 104.781 210.606 104.437 209.508 103.562C208.912 103.094 208.849 102.656 208.724 97.1249C208.63 92.6249 208.473 90.9374 208.096 90.0937C206.559 86.6562 202.951 86.3749 199.813 89.4687C198.809 90.4687 198.809 90.4687 198.652 89.7187C198.558 89.3124 198.433 88.6562 198.401 88.2187C198.276 87.2499 197.68 87.1249 196.111 87.8437ZM218.67 87.5624C216.223 87.9687 214.12 90.1875 213.681 92.8125C213.43 94.3125 214.152 96.2812 215.501 97.7187C216.442 98.7499 216.568 99.4062 215.877 99.6562C215.595 99.7812 215.03 100.469 214.591 101.219L213.775 102.594L214.434 103.656C214.811 104.219 215.093 104.844 215.093 105C215.093 105.156 214.591 105.844 213.995 106.531C213.399 107.187 212.74 108.219 212.552 108.781C212.081 110.187 212.677 111.031 214.999 112.125C216.599 112.906 217.164 113 219.799 113C224.317 112.969 227.298 111.469 228.835 108.437C229.777 106.562 229.557 105.125 228.082 103.875C226.89 102.812 226.357 102.687 221.399 102.437C217.415 102.219 216.662 101.969 216.662 100.906C216.662 99.6562 217.634 99.0937 219.36 99.3124C221.619 99.6249 224.098 98.8124 225.51 97.3437C226.922 95.9062 227.329 94.4687 226.984 92.2812C226.671 90.3124 226.765 90.0937 227.926 90.0937C228.992 90.0937 229.808 89.3124 229.275 88.7812C229.086 88.5937 228.208 88.4687 227.298 88.4999C226.388 88.4999 224.757 88.2499 223.627 87.9062C221.556 87.2499 220.866 87.2187 218.67 87.5624ZM221.148 88.2812C222.78 89.125 223.878 91.4062 223.878 93.8749C223.878 96.0937 223.282 97.3124 221.745 98.2812C220.709 98.9062 220.678 98.9062 219.611 98.3437C217.76 97.3437 217.164 95.9999 217.164 92.7812L217.132 90.0312L218.356 88.9687C219.705 87.8124 220.113 87.7187 221.148 88.2812ZM223.376 105.375C226.451 105.594 226.859 105.687 227.392 106.344C229.62 109.094 223.721 111.906 218.544 110.594C215.877 109.906 214.936 109.031 215.219 107.469C215.344 106.844 215.752 106.062 216.097 105.719C216.85 105.031 217.729 104.969 223.376 105.375ZM248.382 87.5C244.617 88.2187 241.386 93.9999 242.39 98.2499C242.892 100.437 243.707 101.969 244.931 103.187C246.343 104.625 247.598 105.156 249.826 105.344C251.583 105.469 252.022 105.375 253.779 104.531C255.944 103.437 257.011 102.156 258.046 99.4374C259.395 95.9374 258.642 92.2812 256.038 89.6249C254.03 87.5624 251.645 86.9062 248.382 87.5ZM251.865 89.0937C254.093 90.5624 254.94 92.8749 254.94 97.4374C254.94 100.281 254.846 101.031 254.312 101.875C252.179 105.375 248.226 104.25 246.531 99.6874C245.747 97.6249 245.59 93.6562 246.217 91.5937C247.002 88.9999 249.826 87.7499 251.865 89.0937ZM263.882 88.0937C262.69 88.5 261.686 88.8437 261.623 88.8437C261.56 88.8437 261.529 88.9999 261.529 89.1562C261.529 89.3437 261.874 89.6249 262.313 89.7812C263.568 90.2499 263.756 91.3437 263.662 97.3124C263.568 102.062 263.474 102.937 263.035 103.437C261.968 104.594 262.313 104.781 265.294 104.781C268.243 104.781 268.557 104.594 267.49 103.531C266.925 102.969 266.863 102.5 266.863 97.4999C266.863 91.3749 266.925 91.1249 269.216 90.0937C271.004 89.2812 271.663 89.3124 272.73 90.2187L273.608 90.9687L273.702 97.0312C273.797 102.875 273.797 103.062 273.138 103.594C272.761 103.906 272.542 104.281 272.667 104.469C272.887 104.812 277.907 104.906 278.252 104.562C278.377 104.469 278.158 104.031 277.781 103.594C277.091 102.906 277.06 102.562 276.903 96.7187C276.777 92.3749 276.62 90.3437 276.307 89.7812C274.675 86.8124 271.726 86.4375 268.965 88.875C267.616 90.0625 267.521 90.0937 267.208 89.5C267.019 89.1562 266.863 88.625 266.863 88.2812C266.863 87.3125 266.204 87.2812 263.882 88.0937Z" fill="black"/>
</g>
<defs>
<clipPath id="clip0_2_301">
<rect width="278.893" height="113" fill="white"/>
</clipPath>
</defs>
</svg>
