<svg viewBox="0 0 214 94" fill="none" xmlns="http://www.w3.org/2000/svg">
<rect width="214" height="94" fill="black"/>
<path d="M4 41.24H6.34667L9.76 46.44C10.0267 46.84 10.24 47.16 10.48 47.56C10.72 47.16 10.9333 46.84 11.2 46.44L14.64 41.24H16.8V52.76H14.24V47.0267C14.24 46.68 14.24 46.36 14.2667 46.04C14.1067 46.3067 13.92 46.6267 13.7067 46.9467L10.4533 51.88L7.14667 46.8667C6.93333 46.5467 6.77333 46.2533 6.61333 45.9333C6.64 46.2533 6.64 46.5733 6.64 46.92V52.7333H4.05333V41.24H4ZM29.2 47.7733L30.5333 45.1067C30.6933 44.7867 30.8533 44.4667 30.96 44.2C31.0667 44.4667 31.2267 44.7867 31.3867 45.1067L32.7467 47.7733H29.2ZM35.28 52.76H38.1333L32.2133 41.24H29.84L23.92 52.76H26.72L28.0267 50.1467H33.9733L35.28 52.76ZM47.7867 43.6667H52.5067C53.84 43.6667 54.32 44.12 54.32 44.9467C54.32 45.7733 53.8133 46.2267 52.5067 46.2267H47.7867V43.6667ZM53.9467 52.76H57.0933L54.1067 48.4133C55.9733 47.96 57.04 46.68 57.04 44.8933C57.04 42.5733 55.3867 41.2133 52.48 41.2133H45.12V52.7333H47.7867V48.6H51.1467L53.9467 52.76ZM63.9733 47.0267C63.9733 50.6533 66.5333 53 70.8533 53C73.4667 53 75.5467 52.12 77.1733 50.4133L75.3867 48.68C73.9733 49.9867 72.6933 50.5467 70.8533 50.5467C68.2933 50.5467 66.6667 49.1333 66.6667 47.0267C66.6667 44.92 68.24 43.4533 70.8533 43.4533C72.4267 43.4533 73.5733 43.9333 74.88 44.9733L76.6667 43.0267C74.9867 41.6667 73.1467 41.0267 70.8533 41.0267C66.7467 41.0267 63.9733 43.48 63.9733 47.0267ZM97.1067 47.5867C97.1067 51.1067 99.1333 52.9733 102.76 52.9733C106.44 52.9733 108.227 51.2667 108.227 48.1733V41.24H105.56V47.96C105.56 49.5067 104.653 50.52 102.787 50.52C100.84 50.52 99.7467 49.3467 99.7467 47.2667V46.84H97.08V47.5867M120.96 47.7733L122.293 45.1067C122.453 44.7867 122.613 44.4667 122.72 44.2C122.827 44.4667 122.987 44.7867 123.147 45.1067L124.507 47.7733H120.96ZM127.013 52.76H129.893L123.973 41.24H121.6L115.68 52.76H118.48L119.787 50.1467H125.733L127.013 52.76ZM134.44 47.0267C134.44 50.6533 137 53 141.32 53C143.933 53 146.013 52.12 147.64 50.4133L145.853 48.68C144.44 49.9867 143.16 50.5467 141.32 50.5467C138.76 50.5467 137.133 49.1333 137.133 47.0267C137.133 44.92 138.707 43.4533 141.32 43.4533C142.893 43.4533 144.04 43.9333 145.347 44.9733L147.133 43.0267C145.453 41.6667 143.613 41.0267 141.32 41.0267C137.213 41.0267 134.44 43.48 134.44 47.0267ZM165.653 47.0267C165.653 49.16 164.133 50.52 161.84 50.52C159.547 50.52 158.027 49.16 158.027 47.0267C158.027 44.8933 159.573 43.4533 161.84 43.4533C164.107 43.4533 165.653 44.8933 165.653 47.0267ZM155.333 47.0267C155.333 50.5733 158.027 52.9733 161.867 52.9733C165.733 52.9733 168.4 50.5733 168.4 47.0267C168.4 43.48 165.707 41.0267 161.867 41.0267C158 41.0267 155.333 43.5067 155.333 47.0267ZM185.92 49.1333C185.92 49.88 185.44 50.36 184.213 50.36H178.667V48.04H184.24C185.387 48.04 185.92 48.44 185.92 49.1333ZM183.813 43.6133C184.853 43.6133 185.36 43.96 185.36 44.6533C185.36 45.3467 184.853 45.6667 183.813 45.6667H178.667V43.6133H183.813ZM188.613 49.1333C188.613 47.9333 188.08 47.16 187.12 46.5733C187.76 46.0133 188.053 45.2667 188.053 44.36C188.053 42.3333 186.64 41.2133 184.053 41.2133H176.053V52.7333H183.707C186.853 52.76 188.613 51.48 188.613 49.1333ZM196.093 50.7333C197.773 52.12 200.147 52.9733 202.973 52.9733C206.92 52.9733 209 51.48 209 49.16C209 46.3333 206.2 45.8267 203.48 45.6133L202.947 45.56C201.24 45.4267 199.827 45.24 199.827 44.4667C199.827 43.7733 200.733 43.3467 202.547 43.3467C204.173 43.3467 205.693 43.8533 207.027 44.76L208.413 42.7067C206.947 41.5867 204.787 41 202.76 41C198.413 41 197.107 42.84 197.107 44.5467C197.107 47.32 199.987 47.8533 202.467 48.0667L203 48.12C204.893 48.28 206.253 48.4133 206.253 49.32C206.253 50.1733 205.08 50.5733 203.053 50.5733C200.92 50.5733 199.293 49.9333 197.587 48.7333L196.093 50.7333Z" fill="white"/>
</svg>
