<svg viewBox="0 0 351 26" fill="none" xmlns="http://www.w3.org/2000/svg">
<path fill-rule="evenodd" clip-rule="evenodd" d="M22.9091 25.1819H0V24.0902H6.00071V1.72804H0V0.365112H20.4545C27 0.365112 31.9091 2.27491 31.9091 6.36368C31.9091 9.90985 27.8182 11.8175 22.6378 11.8175C28.9098 11.8175 34.3636 14.2721 34.3636 18.6364C34.3636 21.9091 30.5462 25.1819 22.9091 25.1819ZM18.0021 1.72804H13.093V11.2728H19.3672C22.9112 11.2728 25.6413 10.728 25.6413 6.36368C25.6371 2.27278 22.9091 1.72804 18.0021 1.72804ZM19.0916 12.6357H13.0909V24.0902H19.3651C23.1825 24.0902 27.5469 23.2721 27.5469 18.6364C27.5469 13.1826 24.0007 12.6357 19.0916 12.6357ZM156.817 25.1819H133.908V24.0902H139.909V1.72804H133.908V0.365112H154.363C160.908 0.365112 165.817 2.27491 165.817 6.36368C165.817 9.90985 161.726 11.8175 156.544 11.8175C162.818 11.8175 168.272 14.2721 168.272 18.6364C168.272 21.9091 164.452 25.1819 156.817 25.1819ZM151.906 1.72804H146.999V11.2728H153.271C156.817 11.2728 159.545 10.728 159.545 6.36368C159.543 2.27278 156.817 1.72804 151.906 1.72804ZM152.998 12.6357H146.999V24.0902H153.271C157.091 24.0902 161.182 23.2721 161.182 18.6364C161.18 13.1826 157.907 12.6357 152.998 12.6357ZM76.0909 1.72804V17C76.0909 23.2742 70.9084 26 62.4552 26C56.4545 26 47.1832 24.3637 47.1832 17.2735V1.72804H41.1825V0.365112H60.5454V1.72804H54.2713V17.2735C54.2713 23.2742 59.1804 24.0902 63.816 24.0902C69.5433 24.0902 74.7258 22.1804 74.7258 17V1.72804H68.4517V0.365112H82.3608V1.72804H76.0909ZM123.817 26C119.726 26 114.817 24.0902 114.817 18.9077V17.2714C114.817 14.2721 112.089 12.907 107.998 12.907H100.91V24.0881H106.637V25.1797H87.8189V24.0881H93.8196V1.72804H87.8189V0.365112H108.82C116.184 0.365112 120.546 3.09095 120.546 6.63712C120.546 9.90985 116.729 12.3644 111.273 12.3644C118.91 12.3644 122.182 15.6371 122.182 19.1812V21.907C122.182 23.5455 123.001 24.635 124.91 24.635C126.273 24.635 127.092 24.0902 127.636 23.5455L128.454 24.635C127.363 25.4553 126 26 123.817 26ZM106.09 1.72804H100.91V11.5441H106.364C110.454 11.5441 113.454 10.728 113.454 6.63712C113.454 2.81751 111.271 1.72804 106.09 1.72804ZM303.543 26C299.45 26 294.815 24.0902 294.815 18.9077V17.2714C294.815 14.2721 291.815 12.907 287.726 12.907H280.634V24.0881H286.364V25.1797H267.545V24.0881H273.546V1.72804H267.545V0.365112H288.816C295.908 0.365112 300.544 3.09095 300.544 6.63712C300.544 9.90985 296.451 12.3644 290.997 12.3644C298.903 12.3644 301.903 15.6371 301.903 19.1812V21.907C301.903 23.5455 302.996 24.635 304.631 24.635C305.996 24.635 306.812 24.0902 307.63 23.5455L308.177 24.635C307.085 25.4553 305.72 26 303.543 26ZM285.815 1.72804H280.632V11.5441H286.086C290.179 11.5441 293.449 10.728 293.449 6.63712C293.449 2.81751 290.997 1.72804 285.815 1.72804ZM257.452 26C253.363 26 248.452 24.0902 248.452 18.9077V17.2714C248.452 14.2721 245.452 12.907 241.364 12.907H234.543V24.0881H240.272V25.1797H221.454V24.0881H227.454V1.72804H221.454V0.365112H242.453C249.817 0.365112 254.181 3.09095 254.181 6.63712C254.181 9.90985 250.088 12.3644 244.905 12.3644C252.545 12.3644 255.815 15.6371 255.815 19.1812V21.907C255.815 23.5455 256.633 24.635 258.539 24.635C259.904 24.635 260.72 24.0902 261.267 23.5455L261.814 24.635C260.722 25.4553 259.633 26 257.452 26ZM239.727 1.72804H234.54V11.5441H239.998C244.087 11.5441 247.087 10.728 247.087 6.63712C247.087 2.81751 244.634 1.72804 239.727 1.72804ZM176.452 25.1819V24.0902H182.724V1.72804H176.452V0.365112H209.452V8.27348H208.087C208.087 5.00075 205.635 1.72804 199.363 1.72804H189.54V11.8175H193.362C197.998 11.8175 199.363 9.36512 199.363 7.18187H200.724V17.8182H199.363C199.363 15.6371 197.998 13.1826 193.362 13.1826H189.54V24.0902H199.634C207.545 24.0902 210.54 20.5441 210.54 16.7266H211.905V25.1819H176.452ZM345.27 1.72804L334.085 14.8189V24.0902H340.359V25.1819H320.996V24.0902H327.266V14.5455L315.814 1.72804H308.997V0.365112H329.725V1.72804H323.449L333.814 12.9091L343.63 1.72804H337.631V0.365112H350.724V1.72804H345.27Z" fill="black"/>
</svg>
