<svg width="23" height="20" viewBox="0 0 23 20" fill="none" xmlns="http://www.w3.org/2000/svg">
<path d="M7.41037 13.3335H7.4114C7.4123 13.3335 7.41315 13.3333 7.41405 13.3333H19.6309C19.9316 13.3333 20.1961 13.136 20.2787 12.8498L22.9741 3.51649C23.0322 3.31529 22.9914 3.09893 22.8642 2.93196C22.7368 2.76493 22.5376 2.66667 22.3262 2.66667H5.85634L5.37464 0.522045C5.30604 0.217022 5.03265 0 4.7168 0H0.673829C0.301651 0 0 0.298445 0 0.666667C0 1.03489 0.301651 1.33333 0.673829 1.33333H4.17635C4.26161 1.71338 6.48143 11.5964 6.60914 12.1649C5.89304 12.4729 5.39063 13.1793 5.39063 14C5.39063 15.1028 6.29752 16 7.41212 16H19.6309C20.0031 16 20.3047 15.7016 20.3047 15.3333C20.3047 14.9651 20.0031 14.6667 19.6309 14.6667H7.41212C7.04061 14.6667 6.73829 14.3676 6.73829 14C6.73829 13.633 7.03958 13.3344 7.41037 13.3335ZM21.4328 4L19.1225 12H7.95258L6.1557 4H21.4328Z" fill="black"/>
<path d="M6.73816 18C6.73816 19.1028 7.64504 20 8.75965 20C9.87425 20 10.7811 19.1028 10.7811 18C10.7811 16.8972 9.87425 16 8.75965 16C7.64504 16 6.73816 16.8972 6.73816 18ZM8.75965 17.3333C9.13115 17.3333 9.43348 17.6324 9.43348 18C9.43348 18.3676 9.13115 18.6667 8.75965 18.6667C8.38814 18.6667 8.08582 18.3676 8.08582 18C8.08582 17.6324 8.38814 17.3333 8.75965 17.3333Z" fill="black"/>
<path d="M16.2617 18C16.2617 19.1028 17.1686 20 18.2832 20C19.3978 20 20.3047 19.1028 20.3047 18C20.3047 16.8972 19.3978 16 18.2832 16C17.1686 16 16.2617 16.8972 16.2617 18ZM18.2832 17.3333C18.6547 17.3333 18.957 17.6324 18.957 18C18.957 18.3676 18.6547 18.6667 18.2832 18.6667C17.9117 18.6667 17.6094 18.3676 17.6094 18C17.6094 17.6324 17.9117 17.3333 18.2832 17.3333Z" fill="black"/>
</svg>
