<svg width="45" height="45" viewBox="0 0 45 45" xmlns="http://www.w3.org/2000/svg">
<path d="M10.5 29.625C8.01826 29.625 6.00003 31.6432 6.00003 34.125C6.00003 36.6068 8.01826 38.625 10.5 38.625C12.9818 38.625 15 36.6068 15 34.125C15 31.6432 12.9817 29.625 10.5 29.625ZM10.5 37.125C8.84549 37.125 7.50006 35.7795 7.50006 34.125C7.50006 32.4705 8.84558 31.125 10.5 31.125C12.1545 31.125 13.5 32.4705 13.5 34.125C13.5 35.7795 12.1545 37.125 10.5 37.125Z"/>
<path d="M36 29.625C33.5182 29.625 31.5 31.6432 31.5 34.125C31.5 36.6068 33.5182 38.625 36 38.625C38.4818 38.625 40.5 36.6068 40.5 34.125C40.5 31.6432 38.4818 29.625 36 29.625ZM36 37.125C34.3455 37.125 33 35.7795 33 34.125C33 32.4705 34.3455 31.125 36 31.125C37.6545 31.125 39 32.4705 39 34.125C39 35.7795 37.6545 37.125 36 37.125Z"/>
<path d="M44.8807 25.4693L38.1307 14.9693C37.9927 14.7547 37.755 14.625 37.4999 14.625H29.25C28.8352 14.625 28.5 14.961 28.5 15.375V34.1249C28.5 34.5397 28.8352 34.8749 29.25 34.8749H32.25V33.3749H30V16.125H37.0905L43.5 26.0955V33.3751H39.7499V34.875H44.2499C44.6647 34.875 44.9999 34.5398 44.9999 34.125V25.875C45 25.7317 44.9588 25.59 44.8807 25.4693Z"/>
<path d="M33 24.375V19.125H39.0001V17.625H32.2501C31.8353 17.625 31.5001 17.961 31.5001 18.375V25.125C31.5001 25.5397 31.8353 25.8749 32.2501 25.8749H43.5001V24.3749L33 24.375Z"/>
<path d="M29.25 9.375H0.749971C0.336006 9.375 0 9.71101 0 10.125V34.125C0 34.5398 0.336006 34.875 0.749971 34.875H6.75V33.3749H1.50003V10.8749H28.5V33.3749H14.25V34.875H29.25C29.6648 34.875 30 34.5398 30 34.125V10.125C30 9.71101 29.6648 9.375 29.25 9.375Z"/>
<path d="M5.24997 30.375H0.749969V31.875H5.24997V30.375Z"/>
<path d="M28.5 30.375H15.75V31.875H28.5V30.375Z"/>
<path d="M44.2499 30.375H41.25V31.875H44.2499V30.375Z"/>
<path d="M29.25 12.375H2.99997V13.875H29.25V12.375Z"/>
<path d="M11.25 33.375H9.74997V34.875H11.25V33.375Z"/>
<path d="M36.7501 33.375H35.25V34.875H36.7501V33.375Z"/>
<path d="M13.5 6.375H2.99997V7.87503H13.5V6.375Z"/>
<path d="M1.50003 6.375H0V7.87503H1.50003V6.375Z"/>
</svg>
