<svg width="67" height="22" viewBox="0 0 67 22" fill="none" xmlns="http://www.w3.org/2000/svg">
<path d="M64.9784 13.4348L66.8417 14.677C66.237 15.5678 64.7905 17.096 62.2897 17.096C59.1842 17.096 56.8715 14.6933 56.8715 11.6369C56.8715 8.38427 59.2088 6.17773 62.0282 6.17773C64.864 6.17773 66.2533 8.43331 66.7028 9.65099L66.948 10.2721L59.6419 13.2959C60.1976 14.391 61.0639 14.9467 62.2897 14.9467C63.5156 14.9467 64.3655 14.3419 64.9784 13.4348ZM59.2496 11.4653L64.1285 9.43851C63.8588 8.7602 63.0579 8.27803 62.1018 8.27803C60.8841 8.27803 59.1924 9.35678 59.2496 11.4653Z" fill="#FF302F"/>
<path d="M53.3489 0.612793H55.7026V16.5979H53.3489V0.612793Z" fill="#20B15A"/>
<path d="M49.6389 6.60355H51.9108V16.3123C51.9108 20.3413 49.5327 22.0003 46.7214 22.0003C44.0735 22.0003 42.4799 20.2187 41.8833 18.7722L43.9673 17.9059C44.3432 18.7967 45.2503 19.8509 46.7214 19.8509C48.5275 19.8509 49.6389 18.7313 49.6389 16.6392V15.8547H49.5572C49.0178 16.5084 47.9881 17.0969 46.6805 17.0969C43.9509 17.0969 41.4502 14.7187 41.4502 11.6541C41.4502 8.57308 43.9509 6.17041 46.6805 6.17041C47.9799 6.17041 49.0178 6.75065 49.5572 7.38809H49.6389V6.60355ZM49.8023 11.6541C49.8023 9.72539 48.5193 8.31974 46.8848 8.31974C45.234 8.31974 43.8447 9.72539 43.8447 11.6541C43.8447 13.5582 45.234 14.9394 46.8848 14.9394C48.5193 14.9475 49.8023 13.5582 49.8023 11.6541Z" fill="#3686F7"/>
<path d="M28.5297 11.6128C28.5297 14.7592 26.078 17.072 23.0706 17.072C20.0632 17.072 17.6115 14.751 17.6115 11.6128C17.6115 8.45011 20.0632 6.14551 23.0706 6.14551C26.078 6.14551 28.5297 8.45011 28.5297 11.6128ZM26.1434 11.6128C26.1434 9.65145 24.7214 8.30301 23.0706 8.30301C21.4198 8.30301 19.9978 9.65145 19.9978 11.6128C19.9978 13.5578 21.4198 14.9226 23.0706 14.9226C24.7214 14.9226 26.1434 13.5578 26.1434 11.6128Z" fill="#FF302F"/>
<path d="M40.4534 11.6369C40.4534 14.7832 38.0017 17.096 34.9942 17.096C31.9868 17.096 29.5351 14.7832 29.5351 11.6369C29.5351 8.47417 31.9868 6.17773 34.9942 6.17773C38.0017 6.17773 40.4534 8.466 40.4534 11.6369ZM38.0589 11.6369C38.0589 9.67551 36.6369 8.32707 34.9861 8.32707C33.3352 8.32707 31.9133 9.67551 31.9133 11.6369C31.9133 13.5819 33.3352 14.9467 34.9861 14.9467C36.645 14.9467 38.0589 13.5737 38.0589 11.6369Z" fill="#FFBA40"/>
<path d="M8.63819 14.7021C5.21397 14.7021 2.53343 11.9398 2.53343 8.5156C2.53343 5.09138 5.21397 2.32912 8.63819 2.32912C10.4851 2.32912 11.8336 3.05646 12.8306 3.98811L14.4733 2.34547C13.084 1.01337 11.2288 0 8.63819 0C3.94725 0 0 3.82467 0 8.5156C0 13.2065 3.94725 17.0312 8.63819 17.0312C11.1716 17.0312 13.084 16.1976 14.5795 14.6449C16.1159 13.1085 16.5899 10.951 16.5899 9.20208C16.5899 8.65453 16.5245 8.09064 16.451 7.67385H8.63819V9.94576H14.2036C14.0401 11.3678 13.5906 12.3403 12.9287 13.0022C12.1278 13.8113 10.8611 14.7021 8.63819 14.7021Z" fill="#3686F7"/>
</svg>
