<svg width="22" height="22" viewBox="0 0 22 22" xmlns="http://www.w3.org/2000/svg">
<g clip-path="url(#clip0_3_770)">
<path fill-rule="evenodd" clip-rule="evenodd" d="M1.0978 0.231578L2.97187 2.10565C3.08623 2.05133 3.20774 2.00702 3.33639 1.97271L9.15589 0.536062C9.81203 0.373099 10.5153 0.566081 10.9914 1.0421L21.391 11.4288C22.1458 12.1793 22.1458 13.4058 21.391 14.1563L14.1134 21.4339C13.3629 22.1887 12.1364 22.1887 11.3859 21.4339L0.999163 11.0343C0.523139 10.5583 0.330157 9.85497 0.49312 9.19883L1.92977 3.37934C1.96407 3.25068 2.00839 3.12917 2.06271 3.01481L0.188636 1.14074C-0.0643854 0.892008 -0.0643855 0.4846 0.188636 0.231579C0.441657 -0.0214429 0.844776 -0.021443 1.0978 0.231578V0.231578ZM4.00111 3.13489L5.54926 4.68304C6.26544 4.33996 7.15316 4.46862 7.74497 5.06043C8.12236 5.43782 8.31105 5.93099 8.31105 6.42417C8.31105 6.91735 8.12236 7.41481 7.74497 7.78791C6.99448 8.54269 5.76797 8.54269 5.01749 7.78791C4.42567 7.1961 4.29702 6.30838 4.6401 5.5922L3.09195 4.04405L1.74107 9.51189C1.72964 9.56335 1.72392 9.61481 1.72392 9.66628C1.72392 9.83782 1.78825 10.0008 1.90832 10.1251L12.2951 20.5248C12.5438 20.7778 12.9555 20.7778 13.2042 20.5248L20.4818 13.2472C20.7348 12.9984 20.7348 12.5867 20.4818 12.338L10.0822 1.95127C9.92353 1.79259 9.68766 1.72826 9.46895 1.78402L4.00111 3.13489ZM5.92665 5.96959C5.80228 6.09396 5.73795 6.26121 5.73795 6.42417C5.73795 6.59142 5.80228 6.75439 5.92665 6.87875C6.17967 7.13177 6.58708 7.13177 6.83581 6.87875C7.08883 6.63002 7.08883 6.22261 6.83581 5.96959C6.58708 5.72086 6.17967 5.72086 5.92665 5.96959V5.96959Z"/>
<path fill-rule="evenodd" clip-rule="evenodd" d="M13.5681 10.7498C12.6767 11.3258 11.4775 11.0681 10.9015 10.1767C10.3221 9.28016 10.5789 8.08522 11.4755 7.50588C12.3669 6.92984 13.566 7.18754 14.1421 8.07896C14.7214 8.97548 14.4646 10.1704 13.5681 10.7498ZM13.0622 8.7768C12.8712 8.48136 12.4687 8.39486 12.1733 8.58578C11.8728 8.77999 11.7872 9.1783 11.9814 9.47884C12.1723 9.77428 12.5748 9.86078 12.8702 9.66986C13.1666 9.47475 13.2522 9.07644 13.0622 8.7768Z"/>
<path fill-rule="evenodd" clip-rule="evenodd" d="M13.1188 17.167C12.2223 17.7463 11.0315 17.4904 10.4522 16.5939C9.87286 15.6974 10.1297 14.5025 11.0262 13.9231C11.9227 13.3438 13.1134 13.5997 13.6928 14.4962C14.2721 15.3927 14.0153 16.5877 13.1188 17.167ZM12.6129 15.1941C12.422 14.8986 12.0237 14.813 11.724 15.003C11.4277 15.1981 11.3421 15.5965 11.5321 15.8961C11.7272 16.1924 12.1255 16.278 12.421 16.0871C12.7215 15.8929 12.8071 15.4946 12.6129 15.1941Z"/>
<path d="M16.3295 13.3917L8.13449 12.5604C8.10873 12.5578 8.08467 12.5541 8.06231 12.5493C7.74785 12.4817 7.52668 12.1842 7.55743 11.8574C7.59448 11.5013 7.90853 11.2442 8.26464 11.2812L16.4597 12.1125C16.8116 12.1487 17.0729 12.4636 17.0367 12.8155C16.9997 13.1717 16.6856 13.4288 16.3295 13.3917Z"/>
</g>
<defs>
<clipPath id="clip0_3_770">
<rect width="22" height="22" fill="white" transform="translate(0 22) rotate(-90)"/>
</clipPath>
</defs>
</svg>
