<svg width="23" height="15" viewBox="0 0 23 15" fill="none" xmlns="http://www.w3.org/2000/svg">
<g clip-path="url(#clip0_2_681)">
<path d="M23.0005 0H0V15.0003H23.0005V0Z" fill="#1E68BC"/>
<path d="M0 0V1.67708L20.429 15.0003H23.0005V13.3233L2.57145 5.0001e-05H0L0 0ZM23.0005 0V1.67703L2.57145 15.0003H0V13.3233L20.429 0H23.0005Z" fill="white"/>
<path d="M9.58352 0V15.0003H13.4169V0H9.58352ZM0 5.0001V10.0002H23.0005V5.0001H0Z" fill="white"/>
<path d="M0 6.00012V9.00018H23.0005V6.00012H0ZM10.3502 0V15.0003H12.6503V0H10.3502Z" fill="#CC0000"/>
<path d="M0 15.0003L7.66682 10.0002H9.38112L1.7143 15.0003H0H0ZM0 0L7.66682 5.0001H5.95252L0 1.11807V0L0 0ZM13.6193 5.0001L21.2862 0H23.0005L15.3336 5.0001H13.6193ZM23.0005 15.0003L15.3336 10.0002H17.0479L23.0005 13.8823V15.0003Z" fill="#CC0000"/>
</g>
<defs>
<clipPath id="clip0_2_681">
<rect width="23" height="15" fill="white"/>
</clipPath>
</defs>
</svg>
