<svg width="22" height="15" viewBox="0 0 22 15" fill="none" xmlns="http://www.w3.org/2000/svg">
<g clip-path="url(#clip0_2_674)">
<path d="M1.19964 0H20.7964C21.458 0.00390625 21.996 0.535156 21.996 1.18359V13.8125C21.996 14.4609 21.458 14.9922 20.7964 14.9961L1.19565 15C0.538043 14.9922 0 14.4609 0 13.8164V1.18359C0 0.535156 0.538043 0.00390625 1.19964 0Z" fill="#F9022B"/>
<path d="M3.34788 1.49997L4.69896 5.57028L1.16382 3.05466H5.53193L1.99679 5.57028L3.34788 1.49997Z" fill="#FFDE00"/>
<path d="M7.47288 0.80864L7.34534 2.23051L6.59607 1.00786L7.9352 1.56645L6.51636 1.88676L7.47288 0.80864Z" fill="#FFDE00"/>
<path d="M9.25439 2.4765L8.57287 3.73822L8.36562 2.32806L9.38193 3.3515L7.94714 3.10541L9.25439 2.4765Z" fill="#FFDE00"/>
<path d="M9.42175 4.99223L8.27791 5.87114L8.67646 4.50005L9.17465 5.83989L7.96704 5.04301L9.42175 4.99223Z" fill="#FFDE00"/>
<path d="M7.44495 6.04683L7.3772 7.47261L6.57611 6.2812L7.93915 6.78511L6.53625 7.16402L7.44495 6.04683Z" fill="#FFDE00"/>
</g>
<defs>
<clipPath id="clip0_2_674">
<rect width="21.996" height="15" fill="white"/>
</clipPath>
</defs>
</svg>
