<svg width="25" height="25" viewBox="0 0 25 25" fill="none" xmlns="http://www.w3.org/2000/svg">
<g clip-path="url(#clip0_6_1281)">
<path d="M12.5 25C19.4036 25 25 19.4036 25 12.5C25 5.59644 19.4036 0 12.5 0C5.59644 0 0 5.59644 0 12.5C0 19.4036 5.59644 25 12.5 25Z" fill="#039BE5"/>
<path fill-rule="evenodd" clip-rule="evenodd" d="M19.0556 8.93548V15.1796C19.0556 16.2485 18.1881 17.1151 17.123 17.1151H10.9934L6.92606 19.9501V17.1151C5.8631 17.1129 5 16.2463 5 15.1796V8.93548C5 7.86657 5.8675 7 6.93265 7H17.123C18.1881 7 19.0556 7.86657 19.0556 8.93548V8.93548ZM15.2936 13.4333H8.76208V14.2581H15.2936V13.4333ZM15.2936 11.6738H8.76208V12.4985H15.2936V11.6738ZM15.2936 9.91422H8.76208V10.739H15.2936V9.91422Z" fill="white"/>
</g>
<defs>
<clipPath id="clip0_6_1281">
<rect width="25" height="25" fill="white"/>
</clipPath>
</defs>
</svg>
