<svg width="17" height="21" viewBox="0 0 17 21" fill="none" xmlns="http://www.w3.org/2000/svg">
<path fill-rule="evenodd" clip-rule="evenodd" d="M3.81017 5.70985C6.25355 3.82476 8.67385 1.9099 11.0979 0C11.0983 2.86811 11.1019 5.73661 11.096 8.60472C11.0709 10.263 11.0974 11.9215 11.0827 13.58C9.64553 14.5767 8.18774 15.5457 6.74254 16.5316C5.45965 17.4024 4.17623 18.2717 2.8928 19.1419C2.61137 19.3431 2.30895 19.5148 2.04327 19.736C2.50575 19.6262 2.94909 19.4495 3.40331 19.3109C6.73585 18.235 10.0659 17.1524 13.3983 16.0772C13.5058 16.0688 13.5018 15.9562 13.5033 15.8756C13.4988 13.4535 13.5047 11.0317 13.5008 8.60955C14.3469 8.61974 15.1936 8.61099 16.0401 8.61347C16.0411 12.7424 16.0406 16.8708 16.0406 20.9997C11.199 20.9988 6.3572 21.0017 1.51557 20.9983C0.73124 20.9967 0.0215656 20.3208 0.00136039 19.5383C0.000835581 16.4622 0.00188549 13.3863 0.000835869 10.3102C-0.00742989 9.8601 0.0436076 9.39738 0.243691 8.98832C0.511607 8.44165 0.946021 7.9989 1.39486 7.59624C2.15951 6.91744 3.00813 6.34282 3.81017 5.70985Z" fill="#FFCC00"/>
<path fill-rule="evenodd" clip-rule="evenodd" d="M11.0958 8.60475C11.8972 8.60671 12.6987 8.59756 13.5006 8.60971C13.5045 11.0317 13.4986 13.4536 13.5031 15.8758C13.5017 15.9562 13.5056 16.069 13.3981 16.0773C10.0657 17.1527 6.73568 18.2353 3.40314 19.311C2.94891 19.4497 2.50558 19.6263 2.04309 19.7362C2.30878 19.5151 2.6112 19.3433 2.89263 19.1421C4.17605 18.2717 5.45947 17.4024 6.74237 16.5317C8.18757 15.5458 9.64536 14.5769 11.0826 13.5802C11.0972 11.9215 11.0707 10.2629 11.0958 8.60475Z" fill="#D6AB05"/>
<path fill-rule="evenodd" clip-rule="evenodd" d="M7.92656 7.70955C7.25467 7.87119 6.72369 8.44228 6.52479 9.08897C6.43557 9.39409 6.43045 9.75132 6.6186 10.0217C6.79179 10.2684 7.12032 10.36 7.40949 10.3078C7.86869 10.2351 8.26138 9.93724 8.54294 9.58002C8.78777 9.26079 8.96043 8.86648 8.94219 8.45834C8.93983 8.2275 8.84615 7.99078 8.66168 7.84481C8.45858 7.67887 8.17466 7.65837 7.92656 7.70955Z" fill="#2B2A29"/>
</svg>
