<svg width="40" height="24" viewBox="0 0 40 24" fill="none" xmlns="http://www.w3.org/2000/svg">
<path fill-rule="evenodd" clip-rule="evenodd" d="M19.7426 20.6804C21.8229 22.5975 24.6169 23.76 27.6558 23.76C34.182 23.76 39.4642 18.437 39.4642 11.8903C39.4642 5.32324 34.182 0.000244141 27.6558 0.000244141C24.6169 0.000244141 21.8229 1.16273 19.7426 3.07988C17.3564 5.26203 15.847 8.40288 15.847 11.8903C15.8473 15.3778 17.3564 18.5186 19.7426 20.6804Z" fill="#FAB31E"/>
<path fill-rule="evenodd" clip-rule="evenodd" d="M37.8937 18.4981C37.8937 18.2941 38.0569 18.1309 38.2607 18.1309C38.4851 18.1309 38.6481 18.2941 38.6481 18.4981C38.6481 18.7225 38.4849 18.8855 38.2607 18.8855C38.0569 18.8855 37.8937 18.7223 37.8937 18.4981ZM38.2609 18.8039C38.4242 18.8039 38.5667 18.6611 38.5667 18.4981C38.5667 18.3349 38.4239 18.2125 38.2609 18.2125C38.1181 18.2125 37.9755 18.3349 37.9755 18.4981C37.9753 18.6613 38.1181 18.8039 38.2609 18.8039ZM38.2201 18.6815H38.1385V18.3349H38.2813C38.3017 18.3349 38.3425 18.3349 38.3629 18.3553C38.4037 18.3757 38.4037 18.3961 38.4037 18.4369C38.4037 18.4777 38.3833 18.5185 38.3425 18.5185L38.4241 18.6817H38.3221L38.2813 18.5389H38.2201V18.6815V18.4775H38.2609C38.2813 18.4775 38.3017 18.4775 38.3017 18.4775C38.3221 18.4775 38.3221 18.4571 38.3221 18.4367C38.3221 18.4163 38.3221 18.4163 38.3017 18.3959C38.3017 18.3959 38.2813 18.3959 38.2609 18.3959H38.2201V18.4775V18.6815Z" fill="#FAB31E"/>
<path fill-rule="evenodd" clip-rule="evenodd" d="M23.5562 10.6258C23.5154 10.1976 23.4338 9.78979 23.3522 9.36133H16.1324C16.2141 8.93311 16.3365 8.52529 16.4586 8.11723H23.0053C22.8625 7.68901 22.6993 7.26055 22.5159 6.85273H16.9685C17.1725 6.42451 17.3967 5.99605 17.6415 5.58823H21.8224C21.5572 5.16001 21.2514 4.73155 20.925 4.34414H18.5388C18.9058 3.89551 19.3139 3.46705 19.7421 3.07964C17.6413 1.18289 14.8677 0 11.8085 0C5.30259 0 0 5.323 0 11.8901C0 18.4368 5.30259 23.7598 11.8085 23.7598C14.8677 23.7598 17.6413 22.5973 19.7421 20.6801C20.1703 20.2927 20.5579 19.8847 20.925 19.436H18.5388C18.2126 19.0282 17.9269 18.6202 17.6413 18.1715H21.8222C22.0872 17.7637 22.3116 17.3557 22.5157 16.907H16.9682C16.7846 16.4992 16.6012 16.0912 16.4584 15.6629H23.0051C23.1479 15.2551 23.2497 14.8267 23.3517 14.3984C23.4333 13.9906 23.5149 13.5622 23.5557 13.1339C23.5965 12.7261 23.6169 12.3181 23.6169 11.8898C23.6174 11.4621 23.597 11.0336 23.5562 10.6258Z" fill="#E40520"/>
<path fill-rule="evenodd" clip-rule="evenodd" d="M37.8937 14.6433C37.8937 14.4188 38.0569 14.2559 38.2607 14.2559C38.4851 14.2559 38.6481 14.4191 38.6481 14.6433C38.6481 14.8473 38.4849 15.0309 38.2607 15.0309C38.0569 15.0309 37.8937 14.8473 37.8937 14.6433ZM38.2609 14.9289C38.4242 14.9289 38.5667 14.8065 38.5667 14.6433C38.5667 14.4803 38.4239 14.3579 38.2609 14.3579C38.1181 14.3579 37.9755 14.4803 37.9755 14.6433C37.9753 14.8065 38.1181 14.9289 38.2609 14.9289ZM38.2201 14.8065H38.1385V14.4803H38.2813C38.3017 14.4803 38.3425 14.4803 38.3629 14.4803C38.4037 14.5007 38.4037 14.5415 38.4037 14.5823C38.4037 14.6027 38.3833 14.6435 38.3425 14.6639L38.4241 14.8067H38.3221L38.2813 14.6843H38.2201V14.8065V14.6231H38.2609C38.2813 14.6231 38.3017 14.6231 38.3017 14.6027C38.3221 14.6027 38.3221 14.5823 38.3221 14.5619C38.3221 14.5619 38.3221 14.5415 38.3017 14.5415C38.3017 14.5211 38.2813 14.5415 38.2609 14.5415H38.2201V14.6231V14.8065Z" fill="white"/>
<path fill-rule="evenodd" clip-rule="evenodd" d="M15.725 15.3164C15.3376 15.4184 15.052 15.4796 14.7666 15.4796C14.1547 15.4796 13.7875 15.0922 13.7875 14.3987C13.7875 14.2559 13.8079 14.1131 13.8283 13.9501L13.9099 13.4811L13.9711 13.0937L14.5217 9.74902H15.7454L15.6026 10.4833H16.3777L16.1941 11.707H15.419L15.0928 13.7055C15.0724 13.8075 15.0724 13.8687 15.0724 13.9095C15.0724 14.1745 15.1948 14.2765 15.5006 14.2765C15.6434 14.2765 15.7656 14.2561 15.888 14.2357L15.725 15.3164Z" fill="#06326E"/>
<path fill-rule="evenodd" clip-rule="evenodd" d="M19.6811 15.2755C19.2324 15.398 18.8244 15.4592 18.3758 15.4592C16.9888 15.4592 16.1936 14.7249 16.1936 13.277C16.1936 11.5843 17.1317 10.3606 18.437 10.3606C19.477 10.3606 20.1501 11.0541 20.1501 12.1349C20.1501 12.5022 20.1093 12.8488 20.0073 13.3382H17.4579C17.4375 13.4198 17.4375 13.4606 17.4375 13.5014C17.4375 14.0725 17.8249 14.3581 18.5591 14.3581C19.0282 14.3581 19.4362 14.2561 19.8849 14.0523L19.6811 15.2755ZM18.9264 12.3591C18.9264 12.2571 18.9264 12.1757 18.9264 12.1145C18.9264 11.7067 18.702 11.4823 18.3145 11.4823C17.9067 11.4823 17.6211 11.7881 17.4987 12.3591H18.9264Z" fill="#06326E"/>
<path fill-rule="evenodd" clip-rule="evenodd" d="M5.93493 15.378H4.67067L5.4047 10.7485L3.75279 15.378H2.87594L2.77393 10.7689L1.99886 15.378H0.754761L1.75402 9.36157H3.60997L3.65077 13.0735L4.89487 9.36157H6.93443L5.93493 15.378Z" fill="#06326E"/>
<path fill-rule="evenodd" clip-rule="evenodd" d="M9.01461 13.1954C8.8922 13.175 8.85139 13.175 8.76978 13.175C8.03551 13.175 7.6685 13.4604 7.6685 13.9093C7.6685 14.2151 7.85213 14.4191 8.13753 14.4191C8.74962 14.4188 8.99421 13.909 9.01461 13.1954ZM10.0345 15.3775H8.93324L8.95365 14.8677C8.668 15.2551 8.28059 15.4592 7.60753 15.4592C6.99569 15.4592 6.46545 14.9085 6.46545 14.113C6.46545 13.8886 6.50626 13.6848 6.56747 13.4808C6.7715 12.7261 7.52592 12.2571 8.68841 12.2367C8.83123 12.2367 9.05542 12.2367 9.25945 12.2571C9.30026 12.0939 9.30025 12.0327 9.30025 11.9309C9.30025 11.6047 9.03526 11.5027 8.44357 11.5027C8.07656 11.5027 7.6685 11.5639 7.3831 11.6659L7.19948 11.7067L7.11787 11.7271L7.30125 10.6258C7.89269 10.4422 8.32116 10.3608 8.79018 10.3608C9.89146 10.3608 10.4829 10.8707 10.4829 11.8087C10.4829 12.0536 10.5033 12.2369 10.4217 12.7672L10.1363 14.5211L10.0955 14.8269L10.0751 15.0717L10.0547 15.235L10.0345 15.3775Z" fill="#06326E"/>
<path fill-rule="evenodd" clip-rule="evenodd" d="M25.8402 10.5236C26.2072 10.5236 26.5337 10.6256 26.9823 10.8498L27.2067 9.54447C27.0843 9.48326 27.0435 9.48326 26.8805 9.42205L26.3707 9.27923C26.2074 9.23842 26.0037 9.21802 25.7792 9.21802C25.147 9.21802 24.78 9.23843 24.3923 9.46286C24.1883 9.60568 23.9233 9.7893 23.6376 10.1155L23.4744 10.0747L22.1691 10.9926L22.2303 10.4828H20.8842L20.0887 15.3775H21.3736L21.8427 12.7468C21.8427 12.7468 22.0263 12.3795 22.1079 12.2573C22.3527 11.9515 22.5565 11.9515 22.8218 11.9515C22.8626 11.9515 22.9034 11.9515 22.9238 11.9515C22.883 12.2369 22.8626 12.543 22.8626 12.8896C22.8626 14.4803 23.7601 15.4798 25.1467 15.4798C25.4936 15.4798 25.7994 15.439 26.2684 15.3166L26.4928 13.9296C26.085 14.1541 25.7178 14.2559 25.412 14.2559C24.6573 14.2559 24.2087 13.6848 24.2087 12.7876C24.2087 11.4619 24.8817 10.5236 25.8402 10.5236Z" fill="#06326E"/>
<path fill-rule="evenodd" clip-rule="evenodd" d="M36.6701 9.36157L36.3847 11.0747C36.0789 10.6057 35.7117 10.3812 35.2223 10.3812C34.5492 10.3812 33.917 10.7689 33.5295 11.5029V11.4825L32.7139 10.9931L32.7955 10.4833H31.429L30.6539 15.378H31.9184L32.3467 12.7473C32.3467 12.7473 32.6729 12.38 32.7545 12.2578C32.9585 12.013 33.1623 11.9722 33.3255 11.952C33.1827 12.3598 33.1011 12.8493 33.1011 13.3999C33.1011 14.6236 33.7333 15.4395 34.6714 15.4395C35.1404 15.4395 35.5077 15.2763 35.8543 14.8888L35.7931 15.3783H36.9963L37.9754 9.36181H36.6701V9.36157ZM35.0998 14.2155C34.6716 14.2155 34.4472 13.8893 34.4472 13.2571C34.4472 12.2986 34.855 11.6052 35.4464 11.6052C35.8951 11.6052 36.1195 11.952 36.1195 12.5636C36.1195 13.5425 35.7117 14.2155 35.0998 14.2155Z" fill="#06326E"/>
<path fill-rule="evenodd" clip-rule="evenodd" d="M29.2061 13.1954C29.0836 13.175 29.0428 13.175 28.9612 13.175C28.227 13.175 27.8599 13.4604 27.8599 13.9093C27.8599 14.2151 28.0436 14.4191 28.329 14.4191C28.9408 14.4188 29.1857 13.909 29.2061 13.1954ZM30.2257 15.3775H29.104L29.1448 14.8677C28.8592 15.2551 28.4718 15.4592 27.7987 15.4592C27.1665 15.4592 26.6158 14.9289 26.6158 14.113C26.6158 12.9506 27.4929 12.2367 28.8796 12.2367C29.0224 12.2367 29.2466 12.2367 29.4302 12.2571C29.4711 12.0939 29.4915 12.0327 29.4915 11.9309C29.4915 11.6047 29.2265 11.5027 28.6144 11.5027C28.2678 11.5027 27.8393 11.5639 27.5539 11.6659L27.3907 11.7067L27.3091 11.7271L27.4927 10.6258C28.0841 10.4422 28.5124 10.3608 28.9816 10.3608C30.0829 10.3608 30.6539 10.8707 30.6539 11.8087C30.6539 12.0536 30.6947 12.2369 30.5927 12.7672L30.3277 14.5211L30.2869 14.8269L30.2461 15.0717L30.2257 15.235V15.3775Z" fill="#06326E"/>
<path fill-rule="evenodd" clip-rule="evenodd" d="M12.7061 11.5231C12.951 11.5231 13.2976 11.5435 13.6646 11.6047L13.8482 10.4626C13.481 10.4218 12.9915 10.3606 12.7061 10.3606C11.2784 10.3606 10.8094 11.1357 10.8094 12.0329C10.8094 12.6244 11.0746 13.0526 11.7678 13.379C12.2777 13.6236 12.3593 13.6644 12.3593 13.8889C12.3593 14.1947 12.0943 14.3783 11.6046 14.3783C11.2172 14.3783 10.85 14.3171 10.4421 14.1743L10.2993 15.2959L10.3197 15.3163L10.5646 15.3571C10.6462 15.3775 10.7482 15.398 10.891 15.4184C11.1968 15.4388 11.462 15.4592 11.6253 15.4592C13.053 15.4592 13.6442 14.9085 13.6442 13.8276C13.6442 13.1546 13.318 12.7468 12.6857 12.4611C12.1351 12.2163 12.0739 12.1757 12.0739 11.9513C12.0739 11.7271 12.3187 11.5231 12.7061 11.5231Z" fill="#06326E"/>
<path fill-rule="evenodd" clip-rule="evenodd" d="M27.5533 9.15736L27.3289 10.4627C26.8803 10.2382 26.5538 10.1365 26.1868 10.1365C25.2284 10.1365 24.5553 11.0745 24.5553 12.4002C24.5553 13.3179 25.0039 13.8685 25.7586 13.8685C26.0644 13.8685 26.4317 13.7665 26.8395 13.5627L26.615 14.9292C26.146 15.0516 25.84 15.1128 25.4934 15.1128C24.1064 15.1128 23.25 14.1133 23.25 12.5022C23.25 10.3609 24.4329 8.85156 26.1256 8.85156C26.35 8.85156 26.5538 8.87197 26.7171 8.91277L27.2269 9.03518C27.3903 9.09615 27.4312 9.11656 27.5533 9.15736Z" fill="white"/>
<path fill-rule="evenodd" clip-rule="evenodd" d="M23.4338 10.0549C23.393 10.0549 23.3522 10.0549 23.3114 10.0549C22.8832 10.0549 22.6384 10.259 22.2509 10.8504L22.3734 10.0957H21.2109L20.4154 14.9905H21.7003C22.1693 11.9925 22.2918 11.4827 22.9036 11.4827C22.9444 11.4827 22.9444 11.4827 22.9852 11.4827C23.1076 10.8912 23.2706 10.4627 23.4746 10.0753L23.4338 10.0549Z" fill="white"/>
<path fill-rule="evenodd" clip-rule="evenodd" d="M16.051 14.9292C15.7043 15.0516 15.4187 15.0924 15.1331 15.0924C14.4804 15.0924 14.1134 14.7251 14.1134 14.0115C14.1134 13.8891 14.1338 13.7259 14.1542 13.5833L14.2358 13.0939L14.297 12.7064L14.8477 9.36157H16.1122L15.9693 10.0958H16.622L16.4588 11.2991H15.8061L15.4593 13.3387C15.4389 13.4203 15.4389 13.4815 15.4389 13.5427C15.4389 13.7876 15.5613 13.8896 15.8671 13.8896C16.0099 13.8896 16.1323 13.8896 16.2139 13.8488L16.051 14.9292Z" fill="white"/>
<path fill-rule="evenodd" clip-rule="evenodd" d="M11.1363 11.6458C11.1363 12.2577 11.4217 12.6859 12.0947 13.0123C12.625 13.2572 12.7066 13.3385 12.7066 13.5426C12.7066 13.8486 12.4821 13.9912 11.9723 13.9912C11.5849 13.9912 11.238 13.93 10.8302 13.8076L10.6466 14.9292L10.7078 14.9496L10.9322 14.9904C11.0139 15.0108 11.1156 15.0312 11.2789 15.0312C11.5643 15.0721 11.8091 15.0721 11.9723 15.0721C13.3184 15.0721 13.9507 14.5622 13.9507 13.4405C13.9507 12.7675 13.6857 12.3801 13.0534 12.074C12.5028 11.8292 12.4416 11.7682 12.4416 11.5438C12.4416 11.2786 12.666 11.1564 13.0738 11.1564C13.3187 11.1564 13.6653 11.1768 13.9917 11.2176L14.1751 10.0959C13.8489 10.0347 13.3391 9.9939 13.0534 9.9939C11.6257 9.9939 11.1159 10.7486 11.1363 11.6458Z" fill="white"/>
<path fill-rule="evenodd" clip-rule="evenodd" d="M37.3225 14.9903H36.1192L36.1804 14.5213C35.8336 14.8883 35.4666 15.0515 34.9975 15.0515C34.0592 15.0515 33.4474 14.2561 33.4474 13.0324C33.4474 11.4009 34.4058 10.0139 35.5278 10.0139C36.0376 10.0139 36.4048 10.2384 36.7515 10.687L37.0371 8.97388H38.3016L37.3225 14.9903ZM35.4461 13.8482C36.0376 13.8482 36.4454 13.1548 36.4454 12.1963C36.4454 11.5641 36.221 11.2379 35.7724 11.2379C35.2013 11.2379 34.7729 11.9109 34.7729 12.8694C34.7731 13.5218 34.9975 13.8482 35.4461 13.8482Z" fill="white"/>
<path fill-rule="evenodd" clip-rule="evenodd" d="M19.9669 14.8886C19.5183 15.0314 19.1103 15.0926 18.6412 15.0926C17.2135 15.0926 16.4792 14.3379 16.4792 12.89C16.4792 11.2177 17.4173 9.97363 18.7022 9.97363C19.7627 9.97363 20.4357 10.6671 20.4357 11.748C20.4357 12.1152 20.3949 12.4618 20.2725 12.9717H17.7435C17.7231 13.0329 17.7231 13.0737 17.7231 13.1145C17.7231 13.6855 18.1108 13.9712 18.8448 13.9712C19.3138 13.9712 19.7219 13.8895 20.1705 13.6653L19.9669 14.8886ZM19.2531 11.9722C19.2531 11.8701 19.2531 11.7888 19.2531 11.7273C19.2531 11.3195 19.0286 11.0951 18.6412 11.0951C18.2334 11.0951 17.9478 11.4011 17.8254 11.9722H19.2531Z" fill="white"/>
<path fill-rule="evenodd" clip-rule="evenodd" d="M6.26166 14.9903H4.99716L5.73142 10.3605L4.07927 14.9903H3.20243L3.10041 10.4014L2.32534 14.9903H1.14246L2.14196 8.97388H3.9775L4.0387 12.7059L5.26216 8.97388H7.26092L6.26166 14.9903Z" fill="white"/>
<path fill-rule="evenodd" clip-rule="evenodd" d="M9.42299 12.8081C9.30057 12.8081 9.23936 12.7877 9.13735 12.7877C8.42349 12.7877 8.05647 13.0529 8.05647 13.5423C8.05647 13.8484 8.2197 14.0317 8.5051 14.0317C9.03533 14.0317 9.40258 13.5423 9.42299 12.8081ZM10.361 14.9904H9.30057L9.32097 14.4806C8.99477 14.8884 8.56631 15.0721 7.97486 15.0721C7.2814 15.0721 6.81238 14.5418 6.81238 13.7463C6.81238 12.5431 7.62801 11.8496 9.05573 11.8496C9.19855 11.8496 9.38218 11.87 9.58597 11.8904C9.62677 11.7272 9.62677 11.666 9.62677 11.5846C9.62677 11.2584 9.40235 11.136 8.8109 11.136C8.44389 11.136 8.03583 11.1768 7.75043 11.2584L7.56681 11.3196L7.44439 11.34L7.62801 10.2387C8.26026 10.0551 8.68848 9.9939 9.15775 9.9939C10.259 9.9939 10.8505 10.4833 10.8505 11.4216C10.8505 11.6665 10.8301 11.8498 10.7485 12.4007L10.4628 14.1342L10.422 14.44L10.4016 14.6849L10.3812 14.8685L10.361 14.9904Z" fill="white"/>
<path fill-rule="evenodd" clip-rule="evenodd" d="M29.6133 12.8081C29.4705 12.8081 29.4093 12.7877 29.3277 12.7877C28.5934 12.7877 28.2264 13.0529 28.2264 13.5423C28.2264 13.8484 28.41 14.0317 28.6954 14.0317C29.2055 14.0317 29.5929 13.5423 29.6133 12.8081ZM30.5516 14.9904H29.4911L29.5115 14.4806C29.1853 14.8884 28.7569 15.0721 28.1654 15.0721C27.472 15.0721 27.0029 14.5418 27.0029 13.7463C27.0029 12.5431 27.8188 11.8496 29.2463 11.8496C29.3891 11.8496 29.5727 11.87 29.7561 11.8904C29.7969 11.7272 29.8173 11.666 29.8173 11.5846C29.8173 11.2584 29.5929 11.136 29.0017 11.136C28.6344 11.136 28.2062 11.1768 27.9208 11.2584L27.7576 11.3196L27.6352 11.34L27.8188 10.2387C28.4511 10.0551 28.8793 9.9939 29.3483 9.9939C30.4496 9.9939 31.0206 10.4833 31.0206 11.4216C31.0206 11.6665 31.0206 11.8498 30.9186 12.4007L30.6536 14.1342L30.6128 14.44L30.572 14.6849L30.5516 14.8685V14.9904Z" fill="white"/>
<path fill-rule="evenodd" clip-rule="evenodd" d="M33.9778 10.0549C33.937 10.0549 33.8962 10.0549 33.8553 10.0549C33.4271 10.0549 33.1823 10.259 32.7949 10.8504L32.9173 10.0957H31.7548L30.9797 14.9905H32.2442C32.7133 11.9925 32.8357 11.4827 33.4475 11.4827C33.4883 11.4827 33.4883 11.4827 33.5291 11.4827C33.6516 10.8912 33.8148 10.4627 34.0186 10.0753L33.9778 10.0549Z" fill="white"/>
</svg>
