<svg width="36" height="17" viewBox="0 0 36 17" fill="none" xmlns="http://www.w3.org/2000/svg">
<path d="M10.671 4.38226C10.5351 4.5082 10.3974 4.63276 10.2632 4.76083C9.78748 5.21452 9.43007 5.74288 9.30419 6.40099C9.12983 7.31259 9.31547 8.1486 9.86344 8.8984C10.1374 9.27328 10.4645 9.58452 10.8995 9.76341C10.9502 9.78425 11.0018 9.80279 11.0644 9.82681C11.0078 9.98226 10.9577 10.1353 10.8969 10.2839C10.5423 11.1502 10.0814 11.9515 9.45273 12.6469C9.33573 12.7763 9.20356 12.8937 9.0683 13.0041C8.60882 13.3792 8.0941 13.5235 7.51413 13.3531C7.22466 13.2679 6.93822 13.1722 6.65012 13.0823C6.35315 12.9897 6.05275 12.9154 5.73952 12.9078C5.35188 12.8985 4.99286 13.0158 4.6351 13.1488C4.36303 13.25 4.08965 13.3547 3.80847 13.4221C3.36611 13.5282 2.96599 13.3906 2.59879 13.14C2.22843 12.8873 1.93564 12.5556 1.68206 12.1903C1.04639 11.2746 0.562126 10.2841 0.265213 9.20416C0.0011575 8.24365 -0.0729132 7.26922 0.0755145 6.2825C0.206483 5.41218 0.52801 4.62692 1.1354 3.978C1.7646 3.30575 2.53868 3.02944 3.44682 3.12027C3.89892 3.16549 4.33069 3.29772 4.76412 3.42487C4.94478 3.47788 5.12915 3.51772 5.31164 3.56438C5.57261 3.63113 5.83031 3.60082 6.08263 3.52615C6.43839 3.42083 6.78996 3.30147 7.14538 3.19499C7.67378 3.03666 8.2099 2.99139 8.75507 3.09787C9.46052 3.23565 10.0178 3.61883 10.4846 4.1536C10.5431 4.22064 10.6004 4.28883 10.6579 4.3568C10.6631 4.36286 10.6655 4.37135 10.671 4.38226Z" fill="#13130A"/>
<path d="M8.01925 0C8.02675 0.156312 8.04844 0.303675 8.03842 0.448727C7.9837 1.24039 7.67534 1.92096 7.1336 2.4943C6.88901 2.75317 6.61929 2.98045 6.2854 3.11349C6.0013 3.22667 5.69935 3.25115 5.39803 3.27332C5.39346 3.27367 5.38842 3.26847 5.38367 3.26582C5.42551 1.49857 6.30989 0.355355 8.01925 0Z" fill="#13130A"/>
<path d="M14.4371 2.1009C15.1365 1.98333 16.0523 1.88257 17.2178 1.88257C18.6498 1.88257 19.6988 2.21846 20.3648 2.82316C20.9809 3.36064 21.3472 4.18372 21.3472 5.19152C21.3472 6.21618 21.0475 7.0224 20.4814 7.61029C19.7154 8.43331 18.4666 8.85322 17.0513 8.85322C16.6184 8.85322 16.2188 8.83648 15.8857 8.7524V13.2876H14.4372V2.1009H14.4371ZM15.8857 7.55988C16.2021 7.6439 16.6017 7.67745 17.0846 7.67745C18.8329 7.67745 19.8986 6.82088 19.8986 5.25873C19.8986 3.7638 18.8496 3.04154 17.2511 3.04154C16.6184 3.04154 16.1355 3.0919 15.8857 3.15911V7.55988H15.8857Z" fill="#13130A"/>
<path d="M26.5741 13.2879L26.4575 12.2632H26.4076C25.958 12.9015 25.0921 13.4726 23.9432 13.4726C22.3115 13.4726 21.4789 12.3136 21.4789 11.1378C21.4789 9.17257 23.2106 8.09756 26.3243 8.11442V7.94644C26.3243 7.27454 26.1412 6.06515 24.4927 6.06515C23.7434 6.06515 22.9609 6.30034 22.3947 6.66984L22.0617 5.69565C22.7278 5.25893 23.6935 4.97339 24.7091 4.97339C27.1735 4.97339 27.7729 6.66984 27.7729 8.2992V11.3395C27.7729 12.0449 27.8063 12.7336 27.9061 13.2879H26.5741ZM26.3576 9.13897C24.7591 9.10536 22.9442 9.3909 22.9442 10.9698C22.9442 11.9273 23.5768 12.3808 24.3262 12.3808C25.3752 12.3808 26.0412 11.7089 26.2743 11.0203C26.3243 10.8691 26.3576 10.7011 26.3576 10.5499V9.13897Z" fill="#13130A"/>
<path d="M29.7194 5.1582L31.4843 9.96214C31.6676 10.4996 31.8674 11.1379 32.0006 11.625H32.0338C32.1837 11.1379 32.3503 10.5164 32.55 9.92853L34.1485 5.1582H35.6971L33.4992 10.9531C32.4502 13.7414 31.7342 15.1692 30.7351 16.0426C30.0192 16.6809 29.3032 16.9329 28.937 17.0001L28.5705 15.7571C28.937 15.6395 29.4197 15.4043 29.8526 15.0348C30.2523 14.7157 30.7518 14.1446 31.0848 13.3887C31.1515 13.2375 31.2013 13.1199 31.2013 13.036C31.2013 12.952 31.1681 12.8344 31.1014 12.6496L28.121 5.1582H29.7194Z" fill="#13130A"/>
</svg>
