<svg width="38" height="17" viewBox="0 0 38 17" fill="none" xmlns="http://www.w3.org/2000/svg">
<path fill-rule="evenodd" clip-rule="evenodd" d="M2.40866 0.0287669C2.82383 0.0889997 3.25685 0.225712 3.50769 0.581486C3.75365 0.90767 3.72708 1.3364 3.72584 1.72251C3.27656 1.72869 2.82729 1.72745 2.37801 1.72313C2.37369 1.53286 2.40829 1.32899 2.32363 1.15046C2.14071 0.804503 1.50789 0.850836 1.42199 1.25053C1.34968 1.48529 1.47143 1.72992 1.66856 1.86027C2.28346 2.30322 3.06645 2.51696 3.57011 3.10879C3.8964 3.47883 3.87292 4.00641 3.8241 4.4648C3.78579 4.84782 3.57505 5.21416 3.2401 5.41123C2.79083 5.68181 2.24638 5.72567 1.73345 5.70775C1.24586 5.68119 0.721808 5.56752 0.367084 5.20736C0.127182 4.96476 0 4.61665 0 4.27836V3.73954C0.479558 3.76116 0.959115 3.74201 1.43867 3.74942C1.44423 3.98355 1.4053 4.22572 1.4739 4.45368C1.59193 4.74959 1.99301 4.80334 2.2538 4.67731C2.48307 4.55932 2.52571 4.2597 2.46886 4.03174C2.39717 3.81305 2.19941 3.67343 2.01773 3.54988C1.48255 3.20084 0.858383 2.97535 0.404781 2.51079C-0.0407871 2.08947 -0.0580907 1.37965 0.155115 0.839716C0.369989 0.332094 0.914867 0.103455 1.43218 0.0273454C1.69199 -0.0108328 2.15634 -0.00780514 2.40866 0.0287669ZM18.0483 0.262718C18.2063 0.188709 18.3733 0.130947 18.5438 0.0901124C18.7862 0.0321036 19.6331 0.0317943 19.8452 0.0780654C20.2209 0.160105 20.6035 0.308124 20.8132 0.645057C21.0356 0.965062 20.9942 1.36908 20.9992 1.73728C20.5542 1.74654 20.108 1.74716 19.6631 1.73666C19.66 1.51735 19.7132 1.26468 19.5593 1.08244C19.364 0.892782 19.0093 0.889075 18.8165 1.08367C18.6867 1.24985 18.6681 1.50129 18.7825 1.67982C18.9246 1.87566 19.1434 1.99242 19.3485 2.11041C19.8775 2.40941 20.4714 2.64787 20.8676 3.12911C21.1611 3.48248 21.158 3.97484 21.1079 4.40728C21.0777 4.78845 20.8799 5.1622 20.5505 5.36607C20.066 5.67928 19.461 5.7046 18.9017 5.67001C18.4073 5.62924 17.8728 5.47047 17.5656 5.05347C17.2832 4.67601 17.29 4.17871 17.3073 3.73021C17.7826 3.73453 18.2578 3.73453 18.733 3.73021C18.7547 3.96249 18.7126 4.20095 18.7676 4.42891C18.9351 4.85393 19.7064 4.81563 19.7706 4.33748C19.8503 4.06751 19.6804 3.80805 19.469 3.65546C18.8956 3.22919 18.1762 3.00927 17.68 2.4786C17.3339 2.12338 17.2795 1.57851 17.3871 1.11456C17.4587 0.746431 17.7103 0.424574 18.0483 0.262718ZM33.8131 0.516003C34.195 0.129278 34.7679 0.0359942 35.2889 0.0273454C35.8024 0.0298165 36.3605 0.0996252 36.7646 0.446813C37.0427 0.677242 37.1756 1.0374 37.2028 1.39015V1.87881C36.7554 1.88004 36.3079 1.88313 35.8605 1.87695C35.8531 1.68236 35.8673 1.48158 35.8074 1.29378C35.6788 0.969447 35.2184 0.915084 34.9589 1.10721C34.7624 1.25548 34.7704 1.52297 34.7624 1.74413C34.7611 2.46384 34.763 3.18292 34.7617 3.90201C34.7679 4.0583 34.7611 4.2214 34.8186 4.37028C35.0269 4.78542 35.8166 4.70696 35.8531 4.21089C35.8686 3.90819 35.8556 3.60424 35.8537 3.30153C35.6733 3.30339 35.4934 3.3003 35.3136 3.28918C35.3185 3.02724 35.3192 2.76469 35.3142 2.50276C35.9433 2.4904 36.5731 2.5009 37.2028 2.49658V4.1422C37.2028 4.23981 37.2061 4.31771 37.1884 4.41433C37.1394 4.68337 37.0213 4.94209 36.8209 5.13137C36.4488 5.48659 35.9118 5.5947 35.4131 5.60459C34.8687 5.61632 34.2704 5.53478 33.8502 5.1567C33.548 4.89168 33.4324 4.47963 33.4318 4.08981C33.4275 3.28671 33.4325 2.48422 33.4294 1.68112C33.4281 1.26845 33.5109 0.819946 33.8131 0.516003ZM5.68177 0.183025C6.48021 0.184261 7.27865 0.172523 8.07647 0.188585C8.39226 1.96468 8.73709 3.73583 9.05227 5.51192C8.56962 5.5113 8.08697 5.51316 7.60432 5.51069C7.36269 3.90139 7.14022 2.28839 6.88746 0.680949C6.62481 2.28839 6.40296 3.90324 6.14711 5.51254C5.66261 5.51069 5.17811 5.51377 4.69423 5.51069C5.02608 3.73521 5.35238 1.9585 5.68177 0.183025ZM10.2098 0.188585C10.8642 0.170669 11.5199 0.187967 12.175 0.179319C12.2491 0.197234 12.4104 0.13422 12.4141 0.255303C12.5816 1.30675 12.7509 2.35758 12.9196 3.40841C12.9691 3.68023 12.9901 3.95823 13.0698 4.22325C13.2799 2.87527 13.503 1.52915 13.7218 0.182407C14.4516 0.180553 15.1821 0.181788 15.9125 0.181788C15.9342 1.95788 15.9978 3.73397 16.0207 5.51069C15.5733 5.51316 15.1252 5.5113 14.6778 5.51192C14.6654 3.98479 14.6518 2.45828 14.6395 0.931764C14.6352 0.868133 14.6277 0.804504 14.6166 0.741491C14.3484 2.33102 14.024 3.91128 13.7496 5.50018C13.2923 5.52304 12.8331 5.51254 12.3752 5.50574C12.1107 4.04471 11.8314 2.58615 11.5613 1.12574C11.536 0.98242 11.5057 0.839716 11.4674 0.698865C11.4544 1.60205 11.481 2.50646 11.4476 3.40964C11.4402 4.10958 11.4649 4.81075 11.434 5.51069C10.9853 5.51254 10.5373 5.51377 10.0892 5.51007C10.1381 3.73706 10.1758 1.96221 10.2098 0.188585ZM22.3563 0.182407C22.8105 0.185496 23.2647 0.170669 23.7189 0.190438C23.7121 1.53038 23.7165 2.87095 23.7165 4.21151C23.6955 4.51422 24.0094 4.73538 24.2924 4.68781C24.5334 4.67299 24.7504 4.46109 24.7343 4.21275C24.7331 2.87157 24.7374 1.52977 24.7318 0.188585C25.1922 0.179936 25.6545 0.170051 26.1149 0.194144C26.1025 1.4717 26.1173 2.74987 26.1075 4.02803C26.1025 4.4197 26.0494 4.84349 25.7737 5.14435C25.419 5.54405 24.8548 5.64474 24.3462 5.66266C23.8382 5.67007 23.2901 5.62312 22.8649 5.31732C22.5163 5.06651 22.3544 4.62789 22.3557 4.20966C22.3557 2.86724 22.355 1.52482 22.3563 0.182407ZM27.561 0.181788C28.2253 0.179317 28.8903 0.184261 29.5546 0.179319C29.9544 1.50197 30.3333 2.83079 30.7275 4.15468C30.7467 4.21398 30.7726 4.27144 30.7986 4.32827C30.7652 2.94817 30.7442 1.56807 30.7263 0.187966C31.1712 0.1787 31.6174 0.173758 32.0624 0.190438C32.0556 1.94182 32.0574 3.6932 32.0618 5.44458C31.4178 5.44582 30.7726 5.46682 30.1299 5.43346C29.7505 4.1102 29.3327 2.79743 28.9403 1.47787C28.9045 1.35494 28.8649 1.23262 28.8155 1.11401C28.8439 2.55959 28.8705 4.00456 28.8896 5.45014C28.4465 5.44829 28.0034 5.45076 27.561 5.44829C27.5597 3.6932 27.5597 1.93749 27.561 0.181788ZM10.7585 8.37467C11.641 8.10594 12.6446 8.26656 13.4004 8.79599C14.1241 9.30936 14.6475 10.1125 14.7723 10.9959C14.9497 12.0961 14.5542 13.2884 13.7088 14.026C13.1588 14.519 12.4228 14.8156 11.6799 14.7939C11.0051 14.8075 10.2932 14.595 9.82784 14.0841C9.82907 15.0565 9.82846 16.0282 9.82846 17H8.45158C8.44973 14.2404 8.45282 11.4814 8.45035 8.72186C8.45097 8.60634 8.45776 8.49143 8.4658 8.37714C8.92805 8.38641 9.39154 8.379 9.85441 8.3827C9.85565 8.56804 9.8575 8.75399 9.86245 8.93993C10.1146 8.68788 10.4106 8.47105 10.7585 8.37467ZM11.0212 9.55894C10.6145 9.66767 10.2654 9.94876 10.0441 10.3034C9.73947 10.8272 9.69559 11.4666 9.79756 12.0535C9.87295 12.4859 10.0713 12.9134 10.4236 13.1883C10.7697 13.4731 11.2356 13.5689 11.675 13.5491C12.2893 13.5182 12.8646 13.1389 13.1532 12.599C13.448 12.0554 13.4684 11.3937 13.2997 10.8075C13.1693 10.359 12.8764 9.95246 12.4679 9.72018C12.0341 9.47122 11.4995 9.42365 11.0212 9.55894ZM17.0132 8.80217C17.7789 8.26409 18.7985 8.10224 19.6921 8.38209C20.0388 8.48649 20.3404 8.70271 20.5728 8.97762C20.5765 8.77931 20.5771 8.58101 20.5771 8.3827C21.0406 8.38023 21.5047 8.38209 21.9682 8.38147C21.97 10.4819 21.9707 12.5823 21.9682 14.6834C21.5078 14.6778 21.0474 14.6957 20.5882 14.6735C20.5963 14.4801 20.5963 14.2867 20.5876 14.0934C20.1204 14.6018 19.4035 14.8106 18.7287 14.7933C17.9723 14.8143 17.2245 14.4993 16.6745 13.9871C15.9682 13.3508 15.5819 12.3871 15.6184 11.4413C15.6134 10.4016 16.1709 9.39956 17.0132 8.80217ZM18.4228 9.53608C17.8802 9.65655 17.4241 10.0606 17.2097 10.569C16.8723 11.3882 16.96 12.4563 17.6454 13.0753C18.3443 13.7499 19.6229 13.7165 20.2409 12.9499C20.595 12.5119 20.6871 11.9232 20.6716 11.3752C20.6525 10.8136 20.4541 10.2181 19.9956 9.86474C19.5624 9.51137 18.9598 9.41129 18.4228 9.53608ZM22.7981 8.379C23.2882 8.38332 23.7776 8.38332 24.2671 8.379C24.9191 9.84064 25.5241 11.3227 26.1841 12.7806C26.7755 11.3146 27.3422 9.83817 27.9447 8.37714C28.4366 8.38641 28.9292 8.38085 29.4211 8.38023C29.2617 8.80155 29.0726 9.21114 28.9014 9.62751C27.8557 12.0844 26.8218 14.5456 25.7713 17H24.3209C24.6713 16.1518 25.0451 15.3135 25.4073 14.4696C25.4394 14.3837 25.4851 14.2874 25.4339 14.1984C24.565 12.2549 23.6534 10.3287 22.7981 8.379Z" fill="#14299F"/>
</svg>
