<svg width="38" height="15" viewBox="0 0 38 15" fill="none" xmlns="http://www.w3.org/2000/svg">
<path d="M17.6342 2.2029V5.99345H19.9392C20.488 5.99345 20.9421 5.8062 21.3014 5.43224C21.6707 5.0587 21.8548 4.61313 21.8548 4.09775C21.8548 3.59277 21.6707 3.1526 21.3014 2.77822C20.942 2.39428 20.488 2.20205 19.9392 2.20205H17.6342V2.2029ZM17.6342 7.32804V11.7252H16.2576V0.868408H19.9097C20.8376 0.868408 21.6243 1.18211 22.2732 1.80857C22.9329 2.43502 23.2619 3.19843 23.2619 4.09775C23.2619 5.01796 22.9329 5.78636 22.2732 6.40242C21.6349 7.01943 20.8465 7.32719 19.9097 7.32719H17.6342V7.32804Z" fill="#5F6368"/>
<path d="M24.6527 9.4508C24.6527 9.81532 24.8047 10.1181 25.1095 10.361C25.4143 10.6031 25.7701 10.7246 26.1795 10.7246C26.7588 10.7246 27.2736 10.507 27.7278 10.0727C28.1819 9.63741 28.409 9.12797 28.409 8.54226C27.98 8.19779 27.3809 8.02646 26.6132 8.02646C26.0545 8.02646 25.5878 8.16331 25.2142 8.43617C24.8403 8.70914 24.6527 9.04639 24.6527 9.4508ZM26.4342 4.05322C27.4524 4.05322 28.2551 4.32831 28.8442 4.87955C29.4334 5.43078 29.7266 6.18603 29.7266 7.14613V11.7256H28.4098V10.6947H28.35C27.7814 11.5433 27.0233 11.9675 26.0758 11.9675C25.2677 11.9675 24.5901 11.7256 24.0474 11.2404C23.5031 10.7544 23.2313 10.1489 23.2313 9.41993C23.2313 8.65206 23.5174 8.04099 24.0913 7.58629C24.6651 7.1316 25.4313 6.90361 26.3887 6.90361C27.2066 6.90361 27.8806 7.05543 28.4089 7.3582V7.03951C28.4089 6.55448 28.2193 6.14296 27.8404 5.80422C27.4604 5.46516 27.018 5.29648 26.5084 5.29648C25.7396 5.29648 25.1318 5.62471 24.683 6.28236L23.4699 5.50855C24.1395 4.53826 25.1264 4.05322 26.4342 4.05322Z" fill="#5F6368"/>
<path d="M37.2849 4.29565L32.6892 15H31.2679L32.9744 11.2549L29.951 4.29565H31.4485L33.6332 9.63287H33.6627L35.7876 4.29565H37.2849Z" fill="#5F6368"/>
<path d="M12.0703 6.38064C12.0703 5.94132 12.0337 5.5175 11.9643 5.11182H6.15735V7.5143H9.48322C9.34065 8.29755 8.90884 8.9639 8.2536 9.41011V10.9704H10.2386C11.4008 9.88422 12.0703 8.27867 12.0703 6.38064Z" fill="#4285F4"/>
<path d="M6.15749 12.477C7.81933 12.477 9.2183 11.9239 10.2387 10.9702L8.25375 9.40994C7.70134 9.78709 6.98972 10.0074 6.15749 10.0074C4.55151 10.0074 3.18832 8.91037 2.70066 7.43213H0.655762V9.03905C1.66906 11.0772 3.75192 12.477 6.15749 12.477Z" fill="#34A853"/>
<path d="M2.70065 7.4321C2.57597 7.05538 2.50756 6.6533 2.50756 6.23807C2.50756 5.82326 2.57586 5.42119 2.70065 5.04404V3.43701H0.655758C0.236925 4.27925 0 5.23033 0 6.23807C0 7.24581 0.236925 8.19774 0.655758 9.03902L2.70065 7.4321Z" fill="#FABB05"/>
<path d="M6.15749 2.46921C7.06482 2.46921 7.87832 2.78515 8.51975 3.40481V3.40566L10.2772 1.62507C9.20982 0.618284 7.81839 0 6.15749 0C3.75192 0 1.66906 1.39889 0.655762 3.43695L2.70066 5.04399C3.18832 3.56575 4.55151 2.46921 6.15749 2.46921Z" fill="#E94235"/>
</svg>
