<svg width="47" height="16" viewBox="0 0 47 16" fill="none" xmlns="http://www.w3.org/2000/svg">
<path d="M20.0572 14.7598H16.2819L18.6414 0.259107H22.4171L20.0572 14.7598ZM13.1059 0.259107L9.50668 10.2328L9.08078 8.08508L9.08117 8.08586L7.81085 1.56473C7.81085 1.56473 7.65724 0.259107 6.01998 0.259107H0.0698195L0 0.504638C0 0.504638 1.81957 0.883214 3.94906 2.16207L7.22902 14.7602H11.1626L17.169 0.259107H13.1059ZM42.8004 14.7598H46.267L43.2446 0.258719H40.2097C38.8083 0.258719 38.467 1.33937 38.467 1.33937L32.8364 14.7598H36.7719L37.5589 12.6059H42.3582L42.8004 14.7598ZM38.6462 9.63042L40.6298 4.2039L41.7458 9.63042H38.6462ZM33.1316 3.7462L33.6704 0.632252C33.6704 0.632252 32.0079 0 30.2748 0C28.4013 0 23.9523 0.818826 23.9523 4.80047C23.9523 8.54667 29.174 8.59321 29.174 10.561C29.174 12.5287 24.4903 12.1761 22.9446 10.9353L22.3833 14.1912C22.3833 14.1912 24.0691 15.01 26.6446 15.01C29.2209 15.01 33.1076 13.6761 33.1076 10.0455C33.1076 6.27521 27.8389 5.92417 27.8389 4.28497C27.8393 2.64538 31.5161 2.856 33.1316 3.7462Z" fill="#1D338C"/>
</svg>
