<svg width="42" height="42" viewBox="0 0 42 42" xmlns="http://www.w3.org/2000/svg">
<g clip-path="url(#clip0_2_649)">
<path d="M41.5744 9.08324L25.2168 0.101158C24.971 -0.0337192 24.673 -0.0337192 24.4273 0.101158L18.2618 3.48655C18.1317 3.52083 18.0103 3.58617 17.9096 3.68012L8.07003 9.08324C7.80759 9.22708 7.64452 9.50266 7.64452 9.80234V20.6657C5.98466 21.1848 4.46353 22.1003 3.19885 23.3654C-0.0977805 26.6617 -0.938274 31.6893 1.1074 35.8758C1.30606 36.2827 1.79732 36.4516 2.20425 36.2526C2.61151 36.0536 2.78008 35.5624 2.58142 35.1555C0.843398 31.5983 1.55764 27.3266 4.3589 24.5253C6.11074 22.7735 8.43964 21.8087 10.9169 21.8087C13.3942 21.8087 15.7231 22.7735 17.4749 24.5253C19.2264 26.2769 20.1913 28.6058 20.1913 31.083C20.1913 33.5603 19.2264 35.8892 17.4746 37.641C14.6733 40.4423 10.4016 41.1565 6.84447 39.4185C6.43753 39.2195 5.94627 39.3884 5.74762 39.7953C5.54863 40.2026 5.71721 40.6939 6.12447 40.8925C7.64929 41.6378 9.2854 41.9999 10.9097 41.9999C13.7433 41.9996 16.5391 40.8966 18.6347 38.801C19.5957 37.84 20.3552 36.7313 20.8925 35.5261L24.4273 37.467C24.5503 37.5347 24.6862 37.5683 24.822 37.5683C24.9579 37.5683 25.0941 37.5347 25.2168 37.467L41.5744 28.4853C41.8368 28.3411 41.9999 28.0655 41.9999 27.7662V22.0653C41.9999 21.6122 41.6326 21.2451 41.1796 21.2451C40.7265 21.2451 40.3593 21.6123 40.3593 22.0653V27.2807L25.6449 35.3605V19.2683L30.5012 16.6017V20.8289C30.5012 21.1192 30.6544 21.3877 30.904 21.5351C31.0328 21.6111 31.177 21.6492 31.3215 21.6492C31.4574 21.6492 31.5936 21.6156 31.7169 21.5476L35.2222 19.6183C35.4843 19.4741 35.6468 19.1988 35.6468 18.8998V13.7761L40.3594 11.1886V15.5032C40.3594 15.9564 40.7266 16.3235 41.1797 16.3235C41.6328 16.3235 41.9999 15.9563 41.9999 15.5032V9.80242C41.9999 9.50299 41.8368 9.22716 41.5744 9.08324ZM24.822 1.75584L39.4752 9.80225L34.8529 12.3404L20.1997 4.29401L24.822 1.75584ZM24.822 17.8484L10.1689 9.80234L14.9607 7.17097L29.6141 15.217L24.822 17.8484ZM31.3182 14.2814L16.6651 6.23521L18.4954 5.23001L33.1489 13.2761L31.3182 14.2814ZM18.6347 23.3654C16.573 21.3037 13.832 20.1684 10.9167 20.1684C10.3652 20.1684 9.82055 20.209 9.28507 20.2889V11.1885L24.0045 19.2712V35.3634L21.4497 33.9606C21.7012 33.0345 21.8313 32.0687 21.8313 31.083C21.8314 28.1677 20.6961 25.4267 18.6347 23.3654ZM34.0063 18.415L32.1417 19.4413V15.7008L34.0063 14.677V18.415Z"/>
<path d="M41.1797 17.96C40.9641 17.96 40.7523 18.0477 40.5997 18.2003C40.4472 18.3528 40.3594 18.5643 40.3594 18.7803C40.3594 18.996 40.4472 19.2075 40.5997 19.36C40.7523 19.5129 40.9641 19.6003 41.1797 19.6003C41.3954 19.6003 41.6072 19.5129 41.7597 19.36C41.9122 19.2075 42 18.996 42 18.7803C42 18.5643 41.9122 18.3528 41.7597 18.2003C41.6071 18.0477 41.3953 17.96 41.1797 17.96Z"/>
<path d="M8.15862 31.9033C8.36854 31.9033 8.5787 31.8232 8.73865 31.6633C9.05911 31.3429 9.05911 30.8235 8.73865 30.503L8.17054 29.9346H13.0187C14.1947 29.9346 15.1515 30.8914 15.1515 32.0674C15.1515 33.2434 14.1947 34.2002 13.0187 34.2002H10.146C9.69289 34.2002 9.32574 34.5674 9.32574 35.0204C9.32574 35.4732 9.69298 35.8405 10.146 35.8405H13.0187C15.0993 35.8405 16.7921 34.148 16.7921 32.0674C16.7921 29.9868 15.0993 28.2943 13.0187 28.2943H8.17046L8.73857 27.7258C9.05903 27.4054 9.05903 26.886 8.73857 26.5655C8.41843 26.2454 7.89906 26.2454 7.57859 26.5655L5.60985 28.5343C5.28972 28.8547 5.28972 29.3741 5.60985 29.6946L7.57859 31.663C7.73887 31.8233 7.9487 31.9033 8.15862 31.9033Z"/>
<path d="M3.7795 39.0427C3.54624 39.0427 3.31454 38.9433 3.15271 38.7507L3.15114 38.7488C2.85953 38.4021 2.9044 37.8849 3.25109 37.5934C3.59777 37.3014 4.11534 37.3463 4.40687 37.693C4.69816 38.04 4.65427 38.5581 4.3075 38.8498C4.15347 38.9792 3.96599 39.0427 3.7795 39.0427Z"/>
</g>
<defs>
<clipPath id="clip0_2_649">
<rect width="42" height="42"/>
</clipPath>
</defs>
</svg>
