<svg viewBox="0 0 22 22" xmlns="http://www.w3.org/2000/svg">
<path d="M21.0294 19.9633L21.0293 19.9632L15.8864 14.8243C17.1358 13.3345 17.8921 11.4174 17.8921 9.32105C17.8921 4.5924 14.0454 0.75 9.32105 0.75C4.59665 0.75 0.75 4.5924 0.75 9.32105C0.75 14.0497 4.59665 17.8921 9.32105 17.8921C11.4134 17.8921 13.3342 17.1358 14.8244 15.8864L19.9633 21.0253C20.11 21.172 20.3013 21.2459 20.4963 21.2459C20.6913 21.2459 20.8826 21.172 21.0294 21.0253C21.3235 20.7311 21.3235 20.2575 21.0294 19.9633ZM16.3888 9.32105C16.3888 13.2166 13.2166 16.3888 9.32105 16.3888C5.42554 16.3888 2.25328 13.2166 2.25328 9.32105C2.25328 5.42554 5.42554 2.25328 9.32105 2.25328C13.2166 2.25328 16.3888 5.42154 16.3888 9.32105Z"/>
</svg>
