<svg width="35" height="40" viewBox="0 0 35 40" xmlns="http://www.w3.org/2000/svg">
<g clip-path="url(#clip0_2_655)">
<path d="M31.1957 13.683C31.1957 6.12609 25.0639 0 17.5 0C9.9361 0 3.80435 6.12609 3.80435 13.683C1.84891 13.9263 0 15.2033 0 18.168V25.3136C0 28.6583 2.34348 29.8746 4.56522 29.8746H6.77174C7.19193 29.8746 7.53261 29.5342 7.53261 29.1144V14.3976C7.53261 13.9778 7.19193 13.6374 6.77174 13.6374H5.32609C5.32609 6.92018 10.7766 1.47472 17.5 1.47472C24.2234 1.47472 29.6739 6.92018 29.6739 13.6374H28.2283C27.8081 13.6374 27.4674 13.9778 27.4674 14.3976V29.0916C27.4674 29.5114 27.8081 29.8518 28.2283 29.8518H29.6739C29.4609 35.0741 26.95 36.298 21.9359 36.5184V36.0091C21.9359 35.1694 21.2546 34.4888 20.4141 34.4888H15.6283C14.7878 34.4888 14.1065 35.1694 14.1065 36.0091V38.4797C14.1065 39.3194 14.7878 40 15.6283 40H20.4293C21.2698 40 21.9511 39.3194 21.9511 38.4797V38.0388C26.775 37.8183 30.9446 36.8225 31.1957 29.8062C33.1511 29.5629 35 28.2858 35 25.3212V18.1756C35 15.1957 33.1587 13.9263 31.1957 13.683ZM6.01087 15.1045V28.3314H4.52717C3.40109 28.3314 1.4837 27.9361 1.4837 25.2908V18.1452C1.4837 15.5226 3.37826 15.1045 4.52717 15.1045H6.01087ZM20.4293 37.3318V38.4873H15.6283V36.0167H20.4293V37.3318ZM33.4783 25.3136C33.4783 27.9361 31.5837 28.3542 30.4348 28.3542H28.9891V15.1577H30.4728C31.5989 15.1577 33.5163 15.553 33.5163 18.1984L33.4783 25.3136Z"/>
</g>
<defs>
<clipPath id="clip0_2_655">
<rect width="35" height="40"/>
</clipPath>
</defs>
</svg>
