<svg width="39" height="39" viewBox="0 0 39 39" fill="none" xmlns="http://www.w3.org/2000/svg">
<g clip-path="url(#clip0_3_758)">
<circle cx="19.5" cy="19.5" r="19.5" fill="#D9D9D9"/>
<g clip-path="url(#clip1_3_758)">
<path fill-rule="evenodd" clip-rule="evenodd" d="M27.9649 14.8632V23.1018C27.9649 25.7825 25.7825 27.9649 23.1018 27.9649H14.8632C12.1825 27.9649 10 25.7825 10 23.1018V14.8632C10 12.1825 12.1825 10 14.8632 10H23.1018C25.7825 10 27.9649 12.1825 27.9649 14.8632ZM23.8947 18.9825C23.8947 16.2737 21.6912 14.0702 18.9825 14.0702C16.2737 14.0702 14.0702 16.2737 14.0702 18.9825C14.0702 21.6912 16.2737 23.8947 18.9825 23.8947C21.6912 23.8947 23.8947 21.6912 23.8947 18.9825ZM25.4632 13.7789C25.4632 12.9754 24.814 12.3263 24.0105 12.3263C23.2105 12.3263 22.5614 12.9754 22.5614 13.7789C22.5614 14.5789 23.2105 15.2281 24.0105 15.2281C24.814 15.2281 25.4632 14.5789 25.4632 13.7789Z" fill="#838383"/>
<path d="M22.8421 18.9825C22.8421 21.1088 21.1088 22.8421 18.9825 22.8421C16.8561 22.8421 15.1228 21.1088 15.1228 18.9825C15.1228 16.8561 16.8561 15.1228 18.9825 15.1228C21.1088 15.1228 22.8421 16.8561 22.8421 18.9825Z" fill="#838383"/>
<path d="M24.4105 13.7789C24.4105 13.9964 24.2316 14.1754 24.0105 14.1754C23.793 14.1754 23.614 13.9964 23.614 13.7789C23.614 13.5579 23.793 13.3789 24.0105 13.3789C24.2316 13.3789 24.4105 13.5579 24.4105 13.7789Z" fill="#838383"/>
</g>
</g>
<defs>
<clipPath id="clip0_3_758">
<rect width="39" height="39" fill="white"/>
</clipPath>
<clipPath id="clip1_3_758">
<rect width="18" height="18" fill="white" transform="translate(10 10)"/>
</clipPath>
</defs>
</svg>
