<svg width="39" height="39" viewBox="0 0 39 39" fill="none" xmlns="http://www.w3.org/2000/svg">
<g clip-path="url(#clip0_3_717)">
<circle cx="19.5" cy="19.5" r="19.5" fill="#D9D9D9"/>
<path d="M25.7952 12H13.4025C10.9711 12 9 13.9711 9 16.4025V22.5975C9 25.0289 10.9711 27 13.4025 27H25.7952C28.2266 27 30.1977 25.0289 30.1977 22.5975V16.4025C30.1977 13.9711 28.2266 12 25.7952 12ZM22.8178 19.8014L17.0213 22.566C16.8669 22.6396 16.6885 22.527 16.6885 22.3559V16.654C16.6885 16.4805 16.8716 16.368 17.0264 16.4464L22.8228 19.3838C22.9952 19.4711 22.9922 19.7183 22.8178 19.8014Z" fill="#838383"/>
</g>
<defs>
<clipPath id="clip0_3_717">
<rect width="39" height="39" fill="white"/>
</clipPath>
</defs>
</svg>
