<svg width="39" height="39" viewBox="0 0 39 39" fill="none" xmlns="http://www.w3.org/2000/svg">
<g clip-path="url(#clip0_3_718)">
<circle cx="19.5" cy="19.5" r="19.5" fill="#D9D9D9"/>
<path d="M27.1264 21.7108C27.1264 21.7108 28.682 23.2472 29.0668 23.9581C29.0743 23.9684 29.0801 23.9797 29.0841 23.9918C29.2409 24.2544 29.2794 24.4603 29.2025 24.6123C29.0726 24.8634 28.6329 24.9894 28.4838 25H25.7343C25.5429 25 25.1446 24.95 24.6597 24.6152C24.2893 24.3564 23.9208 23.9302 23.5639 23.5136C23.031 22.8951 22.5701 22.3582 22.1035 22.3582C22.0446 22.3581 21.9861 22.3679 21.9304 22.3871C21.5773 22.4987 21.129 23.0018 21.129 24.342C21.129 24.7614 20.7981 25 20.5662 25H19.3069C18.8778 25 16.644 24.8499 14.6631 22.7613C12.2359 20.2042 10.0559 15.0746 10.0347 15.0294C9.89907 14.6975 10.1838 14.5166 10.4917 14.5166H13.2681C13.6405 14.5166 13.7617 14.7417 13.8463 14.9438C13.9445 15.1756 14.3081 16.103 14.9046 17.1449C15.8705 18.84 16.4641 19.5298 16.9383 19.5298C17.0274 19.5301 17.115 19.5069 17.1923 19.4625C17.8119 19.1219 17.6964 16.9092 17.6676 16.4532C17.6676 16.3647 17.6666 15.4652 17.3491 15.0303C17.1221 14.7186 16.7353 14.5974 16.5016 14.5532C16.5641 14.4627 16.6969 14.3242 16.8671 14.2424C17.2914 14.0308 18.0582 14 18.8191 14H19.2415C20.0669 14.0115 20.2805 14.0645 20.5806 14.1405C21.1848 14.2848 21.1963 14.6763 21.1434 16.0097C21.128 16.3907 21.1117 16.8197 21.1117 17.3248C21.1117 17.4326 21.1069 17.5528 21.1069 17.675C21.0886 18.359 21.0645 19.1296 21.5475 19.4461C21.6101 19.4851 21.6825 19.5058 21.7563 19.5058C21.9236 19.5058 22.4249 19.5058 23.7842 17.1728C24.3807 16.1425 24.8425 14.9274 24.8742 14.836C24.9012 14.785 24.982 14.6417 25.0801 14.584C25.1499 14.5468 25.2281 14.5283 25.3072 14.5301H28.5733C28.9292 14.5301 29.1707 14.584 29.2179 14.7186C29.2967 14.937 29.2025 15.6037 27.7113 17.6202C27.4602 17.9559 27.2399 18.2465 27.0465 18.5004C25.6949 20.2744 25.6949 20.3639 27.1264 21.7108Z" fill="#838383"/>
</g>
<defs>
<clipPath id="clip0_3_718">
<rect width="39" height="39" fill="white"/>
</clipPath>
</defs>
</svg>
