<svg width="39" height="39" viewBox="0 0 39 39" fill="none" xmlns="http://www.w3.org/2000/svg">
<g clip-path="url(#clip0_3_719)">
<circle cx="19.5" cy="19.5" r="19.5" fill="#D9D9D9"/>
<path d="M15.2903 18.5868H17.2634V26.7097C17.2634 26.8701 17.3934 27 17.5537 27H20.8992C21.0596 27 21.1895 26.8701 21.1895 26.7097V18.6251H23.4577C23.6052 18.6251 23.7293 18.5144 23.7461 18.3679L24.0906 15.3775C24.1001 15.2952 24.074 15.2128 24.019 15.1511C23.9639 15.0893 23.885 15.0539 23.8023 15.0539H21.1896V13.1794C21.1896 12.6143 21.4939 12.3277 22.094 12.3277C22.1796 12.3277 23.8023 12.3277 23.8023 12.3277C23.9627 12.3277 24.0926 12.1977 24.0926 12.0374V9.29247C24.0926 9.1321 23.9627 9.00215 23.8023 9.00215H21.4481C21.4315 9.00134 21.3946 9 21.3402 9C20.9318 9 19.5119 9.08019 18.3903 10.112C17.1476 11.2554 17.3204 12.6244 17.3617 12.8618V15.0539H15.2903C15.1299 15.0539 15 15.1838 15 15.3442V18.2964C15 18.4568 15.1299 18.5868 15.2903 18.5868Z" fill="#838383"/>
</g>
<defs>
<clipPath id="clip0_3_719">
<rect width="39" height="39" fill="white"/>
</clipPath>
</defs>
</svg>
