<svg viewBox="0 0 27 27" fill="none" xmlns="http://www.w3.org/2000/svg">
<g clip-path="url(#clip0_2_576)">
<path d="M13.5 27C20.9558 27 27 20.9558 27 13.5C27 6.04416 20.9558 0 13.5 0C6.04416 0 0 6.04416 0 13.5C0 20.9558 6.04416 27 13.5 27Z" fill="#039BE5"/>
<path d="M6.1774 13.2075L19.1937 8.18887C19.7978 7.9706 20.3254 8.33626 20.1297 9.24973L20.1308 9.24862L17.9145 19.6898C17.7502 20.43 17.3104 20.61 16.695 20.2612L13.32 17.7739L11.6922 19.3421C11.5122 19.5221 11.3603 19.674 11.0115 19.674L11.2511 16.2394L17.5061 10.5885C17.7784 10.3489 17.4454 10.2139 17.0865 10.4524L9.35665 15.3191L6.02442 14.2796C5.30106 14.0501 5.2853 13.5563 6.1774 13.2075Z" fill="white"/>
</g>
<defs>
<clipPath id="clip0_2_576">
<rect width="27" height="27" fill="white"/>
</clipPath>
</defs>
</svg>
