<svg viewBox="0 0 13 19" xmlns="http://www.w3.org/2000/svg">
<path d="M6.61103 0.11504L12.5485 6.05254C12.6265 6.13047 12.6673 6.23066 12.6673 6.33457C12.6673 6.43477 12.6265 6.53496 12.5485 6.61289C12.3964 6.76875 12.144 6.76875 11.9919 6.61289L6.72978 1.35078L6.72979 18.6029C6.72979 18.8219 6.55166 19 6.33271 19C6.11377 19 5.93564 18.8219 5.93564 18.6029L5.93564 1.35078L0.673535 6.61289C0.521386 6.76875 0.269042 6.76875 0.116894 6.61289C-0.0389654 6.45703 -0.0389654 6.2084 0.116894 6.05254L6.05439 0.11504C6.20654 -0.0371096 6.45889 -0.0371097 6.61103 0.11504Z"/>
</svg>
