<svg width="22" height="22" viewBox="0 0 22 22" xmlns="http://www.w3.org/2000/svg">
<g clip-path="url(#clip0_3_798)">
<path fill-rule="evenodd" clip-rule="evenodd" d="M11 22C8.39609 22 5.86953 21.0719 3.88867 19.3918C3.42031 18.9965 2.98633 18.5582 2.59102 18.0898C0.919531 16.109 0 13.591 0 11C0 8.06094 1.14297 5.29805 3.22266 3.22266C5.29805 1.14297 8.06094 0 11 0C13.9391 0 16.702 1.14297 18.7773 3.22266C20.857 5.29805 22 8.06094 22 11C22 13.591 21.0805 16.109 19.409 18.0898C19.0137 18.5582 18.5797 18.9965 18.1113 19.3918C16.1305 21.0719 13.6039 22 11 22ZM11 1.375C5.69336 1.375 1.375 5.69336 1.375 11C1.375 13.2687 2.17852 15.473 3.63945 17.2047C3.9875 17.6129 4.36992 17.9953 4.77812 18.3434C6.50977 19.8129 8.72266 20.625 11 20.625C13.2773 20.625 15.4902 19.8129 17.2219 18.3434C17.6301 17.9953 18.0125 17.6129 18.3605 17.2047C19.8215 15.473 20.625 13.2687 20.625 11C20.625 5.69336 16.3066 1.375 11 1.375V1.375Z"/>
<path fill-rule="evenodd" clip-rule="evenodd" d="M11 11C8.72695 11 6.875 9.14805 6.875 6.875C6.875 4.60195 8.72695 2.75 11 2.75C13.273 2.75 15.125 4.60195 15.125 6.875C15.125 9.14805 13.273 11 11 11ZM11 4.125C9.4832 4.125 8.25 5.3582 8.25 6.875C8.25 8.3918 9.4832 9.625 11 9.625C12.5168 9.625 13.75 8.3918 13.75 6.875C13.75 5.3582 12.5168 4.125 11 4.125Z"/>
<path d="M17.6688 19.5551C17.6143 19.5551 17.5585 19.5479 17.5012 19.5336C17.1316 19.4391 16.9082 19.0695 17.0027 18.7C17.123 18.2059 17.1875 17.6988 17.1875 17.1875C17.1875 13.823 14.4547 11.0473 11.0902 11H11H10.9098C7.54531 11.0473 4.8125 13.823 4.8125 17.1875C4.8125 17.6988 4.87695 18.2059 4.99727 18.7C5.0918 19.0695 4.86836 19.4391 4.49883 19.5336C4.1293 19.6238 3.75547 19.4004 3.66523 19.0352C3.51484 18.4336 3.4375 17.8105 3.4375 17.1875C3.4375 15.1852 4.21094 13.2988 5.61602 11.8766C7.02109 10.4543 8.89453 9.65508 10.8926 9.625C10.8954 9.625 10.8983 9.625 10.9012 9.625H11H11.0988C11.1017 9.625 11.1046 9.625 11.1074 9.625C13.1055 9.65508 14.9789 10.4543 16.384 11.8766C17.7891 13.2988 18.5625 15.1852 18.5625 17.1875C18.5625 17.8105 18.4852 18.4336 18.3348 19.0352C18.2574 19.3445 17.9781 19.5551 17.6688 19.5551Z"/>
</g>
<defs>
<clipPath id="clip0_3_798">
<rect width="22" height="22" fill="white"/>
</clipPath>
</defs>
</svg>
