<svg viewBox="0 0 27 27" fill="none" xmlns="http://www.w3.org/2000/svg">
<g clip-path="url(#clip0_2_579)">
<path d="M13.5 27C20.9558 27 27 20.9558 27 13.5C27 6.04416 20.9558 0 13.5 0C6.04416 0 0 6.04416 0 13.5C0 20.9558 6.04416 27 13.5 27Z" fill="#6F3FAA"/>
<path d="M19.3568 7.40622C16.0708 6.61256 12.7789 5.68423 9.4091 6.86368C7.22727 7.68186 7.22727 10.0455 7.31818 12.0455C7.31818 12.591 6.68184 13.3183 6.95453 13.9546C7.49996 15.7728 7.95453 17.591 9.86362 18.5001C10.1364 18.6819 9.86362 19.0455 10.0454 19.3182C9.95453 19.3182 9.7727 19.4091 9.7727 19.5001C9.7727 19.9358 9.96824 20.6023 9.83836 21.032L15.6395 26.8307C21.6032 25.8809 26.2643 21.0263 26.9201 14.9696L19.3568 7.40622Z" fill="#512D84"/>
<path d="M20.6416 9.48813L20.6372 9.47031C20.2765 8.01204 18.6503 6.44731 17.1569 6.12178L17.14 6.1183C14.7245 5.65751 12.2752 5.65751 9.86021 6.1183L9.84286 6.12178C8.34995 6.44731 6.72367 8.01215 6.3625 9.47031L6.35849 9.48813C5.91257 11.5246 5.91257 13.5899 6.35849 15.6263L6.3625 15.6441C6.70833 17.0401 8.21342 18.533 9.65112 18.9436V20.5714C9.65112 21.1606 10.3691 21.4499 10.7774 21.0247L12.4266 19.3104C12.7844 19.3304 13.1423 19.3415 13.5001 19.3415C14.716 19.3415 15.9325 19.2265 17.14 18.9962L17.1568 18.9927C18.6502 18.6672 20.2765 17.1023 20.6372 15.6442L20.6416 15.6264C21.0875 13.5899 21.0875 11.5247 20.6416 9.48813ZM19.3364 15.331C19.0956 16.2824 17.8609 17.4652 16.8798 17.6837C15.5954 17.928 14.3009 18.0323 13.0076 17.9965C12.9819 17.9958 12.9571 18.0058 12.9393 18.0242C12.7557 18.2126 11.7351 19.2604 11.7351 19.2604L10.4543 20.575C10.3606 20.6727 10.1961 20.6062 10.1961 20.4714V17.7748C10.1961 17.7303 10.1643 17.6924 10.1205 17.6838C10.1202 17.6837 10.12 17.6837 10.1198 17.6836C9.1387 17.4651 7.9044 16.2824 7.66314 15.331C7.26178 13.4902 7.26178 11.6242 7.66314 9.78344C7.9044 8.83206 9.1387 7.64934 10.1198 7.43081C12.3629 7.00418 14.6372 7.00418 16.8798 7.43081C17.8614 7.64934 19.0956 8.83206 19.3365 9.78344C19.7383 11.6242 19.7383 13.4903 19.3364 15.331Z" fill="white"/>
<path d="M15.6341 16.5759C15.4833 16.5301 15.3396 16.4993 15.2061 16.444C13.8228 15.8701 12.5498 15.1297 11.5414 13.9948C10.968 13.3494 10.5192 12.6208 10.1398 11.8497C9.95988 11.4841 9.80827 11.1041 9.6537 10.7265C9.5128 10.3823 9.72036 10.0266 9.93889 9.76719C10.144 9.52372 10.4079 9.33746 10.6937 9.20009C10.9168 9.09293 11.1368 9.15474 11.2998 9.34379C11.6519 9.75259 11.9755 10.1823 12.2374 10.6561C12.3985 10.9476 12.3543 11.3039 12.0623 11.5022C11.9913 11.5504 11.9267 11.607 11.8606 11.6615C11.8026 11.7092 11.748 11.7574 11.7083 11.822C11.6357 11.9402 11.6322 12.0796 11.6789 12.2082C12.0389 13.1975 12.6457 13.9669 13.6416 14.3813C13.801 14.4476 13.961 14.5248 14.1446 14.5034C14.4521 14.4675 14.5516 14.1302 14.7671 13.954C14.9777 13.7819 15.2468 13.7796 15.4736 13.9231C15.7005 14.0668 15.9204 14.2209 16.1391 14.3767C16.3537 14.5296 16.5673 14.6791 16.7652 14.8535C16.9556 15.0212 17.0212 15.2411 16.914 15.4685C16.7178 15.8852 16.4322 16.2317 16.0204 16.453C15.9042 16.5153 15.7652 16.5355 15.6341 16.5759C15.4833 16.5301 15.7652 16.5355 15.6341 16.5759Z" fill="white"/>
<path d="M13.5037 8.72362C15.3129 8.77435 16.799 9.97506 17.1175 11.7638C17.1718 12.0686 17.1911 12.3802 17.2152 12.6896C17.2254 12.8197 17.1517 12.9433 17.0113 12.945C16.8663 12.9467 16.801 12.8253 16.7916 12.6954C16.7729 12.4379 16.76 12.1792 16.7245 11.924C16.5373 10.5762 15.4625 9.46111 14.121 9.22185C13.9191 9.18583 13.7126 9.17639 13.508 9.15493C13.3787 9.14138 13.2095 9.13357 13.1808 8.97284C13.1568 8.8381 13.2705 8.73084 13.3988 8.72393C13.4336 8.72188 13.4687 8.72351 13.5037 8.72362C15.313 8.77435 13.4687 8.72351 13.5037 8.72362Z" fill="white"/>
<path d="M16.2533 12.288C16.2503 12.3106 16.2488 12.3637 16.2355 12.4137C16.1875 12.5953 15.912 12.618 15.8487 12.4348C15.8299 12.3804 15.8271 12.3185 15.827 12.26C15.8264 11.8768 15.7431 11.4939 15.5498 11.1605C15.3512 10.8178 15.0476 10.5298 14.6917 10.3554C14.4765 10.25 14.2437 10.1845 14.0078 10.1455C13.9047 10.1284 13.8005 10.1182 13.6969 10.1037C13.5713 10.0863 13.5042 10.0063 13.5103 9.88254C13.5158 9.76663 13.6005 9.68315 13.7269 9.69038C14.1421 9.7139 14.5432 9.80376 14.9124 9.99919C15.663 10.3968 16.0918 11.0242 16.217 11.8621C16.2227 11.9001 16.2317 11.9377 16.2346 11.9757C16.2417 12.0697 16.2462 12.1638 16.2533 12.288C16.2503 12.3105 16.2462 12.1638 16.2533 12.288Z" fill="white"/>
<path d="M15.128 12.2442C14.9767 12.247 14.8957 12.1631 14.88 12.0244C14.8692 11.9277 14.8605 11.8296 14.8374 11.7355C14.792 11.55 14.6934 11.3782 14.5374 11.2645C14.4638 11.2109 14.3803 11.1718 14.293 11.1465C14.182 11.1144 14.0666 11.1233 13.9559 11.0962C13.8356 11.0667 13.769 10.9692 13.788 10.8564C13.8052 10.7537 13.905 10.6736 14.0173 10.6817C14.7188 10.7324 15.2201 11.095 15.2917 11.9208C15.2968 11.9791 15.3027 12.0406 15.2898 12.0965C15.2675 12.1918 15.1969 12.2396 15.128 12.2442C14.9766 12.2469 15.1969 12.2396 15.128 12.2442Z" fill="white"/>
<path d="M20.6417 9.48823L20.6372 9.4704C20.435 8.65297 19.835 7.80215 19.0838 7.15479L18.0682 8.05486C18.6721 8.53606 19.1895 9.20267 19.3365 9.78349C19.7384 11.6243 19.7384 13.4903 19.3365 15.3311C19.0957 16.2825 17.8609 17.4653 16.8799 17.6838C15.5956 17.928 14.301 18.0324 13.0077 17.9966C12.982 17.9959 12.9573 18.0059 12.9394 18.0243C12.7558 18.2127 11.7352 19.2605 11.7352 19.2605L10.4544 20.5751C10.3607 20.6728 10.1962 20.6064 10.1962 20.4715V17.7749C10.1962 17.7303 10.1644 17.6925 10.1206 17.6839C10.1204 17.6839 10.1201 17.6838 10.1199 17.6838C9.56232 17.5596 8.92323 17.1238 8.4309 16.5963L7.42737 17.4856C8.05412 18.1674 8.86248 18.7186 9.65107 18.9438V20.5716C9.65107 21.1608 10.369 21.4501 10.7773 21.0249L12.4266 19.3106C12.7843 19.3306 13.1421 19.3418 13.5 19.3418C14.7159 19.3418 15.9324 19.2267 17.1399 18.9964L17.1568 18.993C18.6502 18.6674 20.2764 17.1027 20.6371 15.6444L20.6415 15.6266C21.0875 13.59 21.0875 11.5248 20.6417 9.48823Z" fill="#D1D1D1"/>
<path d="M15.6342 16.5758C15.7653 16.5354 15.4834 16.53 15.6342 16.5758V16.5758Z" fill="white"/>
<path d="M16.7654 14.8535C16.5675 14.6792 16.3538 14.5296 16.1392 14.3766C15.9206 14.2208 15.7007 14.0667 15.4738 13.9231C15.247 13.7795 14.9779 13.7818 14.7672 13.954C14.5518 14.1302 14.4523 14.4675 14.1448 14.5034C13.9612 14.5247 13.8011 14.4475 13.6418 14.3813C13.0291 14.1264 12.5642 13.7366 12.2128 13.2444L11.4661 13.9062C11.4914 13.9356 11.5156 13.9657 11.5414 13.9947C12.5498 15.1296 13.8229 15.87 15.206 16.4439C15.3395 16.4993 15.4833 16.5301 15.6341 16.5758C15.4833 16.53 15.7653 16.5355 15.6341 16.5758C15.7653 16.5355 15.9041 16.5152 16.0205 16.4528C16.4324 16.2316 16.7179 15.885 16.9141 15.4684C17.0213 15.241 16.9558 15.0211 16.7654 14.8535Z" fill="#D1D1D1"/>
<path d="M13.5078 8.72381C13.5064 8.72381 13.5051 8.72367 13.5037 8.72367C13.5024 8.72358 13.5041 8.72367 13.5078 8.72381Z" fill="white"/>
<path d="M13.5035 8.72363C13.5051 8.72363 13.5065 8.72379 13.5081 8.72379C13.6085 8.72738 15.2416 8.77236 13.5035 8.72363Z" fill="white"/>
<path d="M16.099 9.80005L15.7806 10.0822C16.2809 10.569 16.6259 11.2141 16.7245 11.924C16.76 12.1793 16.773 12.4379 16.7916 12.6953C16.8011 12.8254 16.8662 12.9468 17.0114 12.9451C17.1518 12.9433 17.2255 12.8198 17.2153 12.6896C17.1911 12.3803 17.1718 12.0686 17.1176 11.7639C16.9782 10.9809 16.615 10.3106 16.099 9.80005Z" fill="#D1D1D1"/>
<path d="M16.2169 11.8622C16.1257 11.2516 15.8725 10.7534 15.4517 10.3738L15.1343 10.6551C15.2984 10.8008 15.4405 10.9719 15.5498 11.1607C15.7431 11.4941 15.8264 11.877 15.827 12.2601C15.8271 12.3187 15.8299 12.3806 15.8487 12.4351C15.9122 12.6184 16.1875 12.5957 16.2355 12.414C16.2488 12.3639 16.2503 12.3108 16.2534 12.2882C16.2503 12.3109 16.2461 12.1642 16.2534 12.2882C16.2461 12.1642 16.2416 12.07 16.2345 11.9759C16.2317 11.9377 16.2226 11.9001 16.2169 11.8622Z" fill="#D1D1D1"/>
<path d="M16.2534 12.288C16.2462 12.1639 16.2503 12.3106 16.2534 12.288V12.288Z" fill="white"/>
<path d="M15.1288 12.2444C15.1313 12.2442 15.1336 12.2429 15.136 12.2427C15.1294 12.2427 15.1192 12.2428 15.1088 12.2432C15.1155 12.2434 15.1217 12.2444 15.1288 12.2444Z" fill="white"/>
<path d="M15.1281 12.2445C15.1213 12.2446 15.1152 12.2436 15.1087 12.2434C15.076 12.2443 15.0422 12.246 15.1281 12.2445Z" fill="white"/>
<path d="M15.1355 12.2427C15.1329 12.243 15.1305 12.2443 15.1281 12.2444C15.1471 12.2431 15.1454 12.2427 15.1355 12.2427Z" fill="white"/>
<path d="M14.8085 10.9436L14.4854 11.2301C14.5032 11.2409 14.5206 11.2522 14.5376 11.2644C14.6935 11.3781 14.7921 11.5499 14.8376 11.7354C14.8607 11.8295 14.8692 11.9275 14.8801 12.0243C14.895 12.1569 14.9703 12.2383 15.1088 12.2431C15.1188 12.2428 15.1288 12.2426 15.135 12.2426C15.2017 12.2352 15.2685 12.1885 15.2899 12.0963C15.3028 12.0405 15.2969 11.9789 15.2918 11.9206C15.2516 11.4589 15.077 11.1421 14.8085 10.9436Z" fill="#D1D1D1"/>
</g>
<defs>
<clipPath id="clip0_2_579">
<rect width="27" height="27" fill="white"/>
</clipPath>
</defs>
</svg>
