<svg viewBox="0 0 27 27" fill="none" xmlns="http://www.w3.org/2000/svg">
<g clip-path="url(#clip0_2_572)">
<path d="M23.085 3.88014C20.52 1.40063 17.145 0 13.5506 0C3.23436 0 -3.24337 11.1769 1.90798 20.0678L0 27L7.12689 25.1415C10.2319 26.8189 12.7755 26.6704 13.5574 26.7693C25.5195 26.7693 31.4741 12.2973 23.0681 3.92396L23.085 3.88014Z" fill="#ECEFF1"/>
<path d="M13.5753 24.4699L13.5686 24.4688H13.5506C9.97085 24.4688 7.68376 22.7735 7.45874 22.6756L3.23999 23.7725L4.37062 19.6719L4.10172 19.25C2.98797 17.477 2.39624 15.4351 2.39624 13.3325C2.39624 3.44037 14.4844 -1.50627 21.4796 5.48562C28.458 12.4043 23.5586 24.4699 13.5753 24.4699Z" fill="#4CAF50"/>
<path d="M19.6954 16.0955L19.6853 16.1799C19.3467 16.0111 17.6974 15.2045 17.3903 15.0931C16.7007 14.8377 16.8953 15.0526 15.5712 16.5691C15.3743 16.7885 15.1786 16.8053 14.8445 16.6535C14.507 16.4847 13.4236 16.1303 12.1411 14.9828C11.1421 14.0885 10.4716 12.9916 10.2736 12.6541C9.94395 12.0848 10.6336 12.0038 11.2614 10.8158C11.3738 10.5796 11.3165 10.394 11.2333 10.2263C11.1489 10.0576 10.4773 8.40381 10.196 7.74458C9.92602 7.08756 9.64817 7.17083 9.44002 7.17083C8.79202 7.11456 8.31842 7.12358 7.90102 7.55784C6.08527 9.55358 6.54317 11.6123 8.09677 13.8016C11.15 17.7976 12.7768 18.5333 15.7513 19.5549C16.5545 19.8103 17.2869 19.7742 17.8663 19.691C18.512 19.5886 19.8542 18.8799 20.1343 18.0867C20.4212 17.2936 20.4212 16.6355 20.3368 16.4836C20.2534 16.3317 20.0329 16.2474 19.6954 16.0955Z" fill="#FAFAFA"/>
</g>
<defs>
<clipPath id="clip0_2_572">
<rect width="27" height="27" fill="white"/>
</clipPath>
</defs>
</svg>
