<svg width="98" height="19" viewBox="0 0 98 19" fill="none" xmlns="http://www.w3.org/2000/svg">
<path fill-rule="evenodd" clip-rule="evenodd" d="M4.59361 9.62103L1.93706 15.5975H0L2.91775 9.20624C1.54508 8.50803 0.631809 7.24372 0.631809 4.90849C0.631809 1.63665 2.69965 0.00146484 5.16021 0.00146484H7.66425V15.5979H5.98838V9.6214H4.59361V9.62103ZM5.98801 1.41818H5.09464C3.74555 1.41818 2.43846 2.31271 2.43846 4.90849C2.43846 7.4168 3.6365 8.22388 5.09464 8.22388H5.98801V1.41818Z" fill="#E52D2D"/>
<path fill-rule="evenodd" clip-rule="evenodd" d="M15.7495 4.60418V15.5969H14.0718V10.6681H11.5461V15.5969H9.84662V4.60418H11.5461V9.27098H14.0718V4.60418H15.7495ZM24.481 17.7576H22.9581V15.5969H18.2536V17.7576H16.7284V14.202H17.404C18.4065 11.8682 18.5151 8.46538 18.5151 5.54227V4.60382H23.6101V14.2016H24.4814V17.7576H24.481ZM21.9335 5.97736H20.0381V6.17406C20.0381 8.48752 19.9309 11.8686 19.0158 14.2023H21.9335V5.97736ZM29.1638 15.7497C26.8978 15.7497 25.5052 13.94 25.5052 10.5589C25.5052 7.02467 26.484 4.45142 28.8153 4.45142C30.6437 4.45142 31.8421 5.82458 31.8421 9.55513V10.4936H27.2684C27.2684 12.9797 27.9658 14.2894 29.3148 14.2894C30.2734 14.2894 31.036 13.8532 31.4718 13.5473L31.8638 14.857C31.1664 15.4024 30.2513 15.7497 29.1638 15.7497ZM27.2897 9.09642H30.0988C30.0988 7.22136 29.7938 5.84819 28.8153 5.84819C27.7694 5.84819 27.3988 7.1339 27.2897 9.09642ZM35.2826 10.1223V15.5969H33.5832V4.60418H35.2826V9.68577L37.9174 4.60418H39.6386L36.915 9.77323L40.0291 15.5969H38.1786L35.2826 10.1223ZM40.2468 10.1006C40.2468 6.65416 41.576 4.45142 44.1453 4.45142C45.1256 4.45142 45.6922 4.71343 46.1696 5.01899L45.9298 6.63203C45.4726 6.23938 44.8205 5.86813 44.1235 5.86813C42.9034 5.86813 42.0336 7.24314 42.0336 10.0135C42.0336 12.7617 42.6853 14.333 44.0579 14.333C44.8861 14.333 45.5179 14.0057 45.9099 13.6566L46.3004 14.9223C45.7139 15.4224 45.0165 15.7501 44.0145 15.7501C41.663 15.7497 40.2468 13.8529 40.2468 10.1006Z" fill="#2C2B2A"/>
<path fill-rule="evenodd" clip-rule="evenodd" d="M60.0865 15.5983H59.0424H60.0865L60.0861 0.00110367V0H60.0865V15.5983ZM52.5073 15.5983H51.5506V0V15.5983H52.5073Z" fill="#FEFEFE"/>
<path fill-rule="evenodd" clip-rule="evenodd" d="M60.0861 0.00110367H58.866V0H60.0861V0.00110367ZM52.8127 0.00110367H51.5506V0H52.8127V0.00110367Z" fill="#FEFEFE"/>
<path fill-rule="evenodd" clip-rule="evenodd" d="M60.0861 15.598H59.0424V4.66912C59.0424 3.92699 59.0841 3.14169 59.1275 2.3575H59.0424C58.8442 3.22841 58.6935 3.86167 58.5174 4.51634L56.188 13.1978H55.3381L53.0301 4.58202C52.8127 3.77421 52.6381 3.076 52.5073 2.3575H52.4421C52.4856 3.09925 52.5073 3.88345 52.5073 4.66912V15.5984L51.5506 15.598V0.0012207H52.8127L55.449 9.96916C55.5581 10.3836 55.7106 11.1914 55.774 11.7807H55.8392C55.9265 11.1914 56.1007 10.3622 56.2094 9.96916L58.866 0.0012207H60.0861V15.598Z" fill="#2C2B2A"/>
<path fill-rule="evenodd" clip-rule="evenodd" d="M66.8857 14.1155C66.363 15.1614 65.5805 15.8164 64.4911 15.8164C63.009 15.8164 61.9871 14.6373 61.9871 12.6317C61.9871 10.2761 63.2706 9.05388 65.6439 9.05388H66.8423V7.67886C66.8423 6.00014 66.2105 5.27979 65.0139 5.27979C64.077 5.27979 63.2271 5.71635 62.7044 6.48025L62.4211 5.49825C62.8569 4.93068 63.772 4.38525 65.0139 4.38525C66.8205 4.38525 67.8443 5.38902 67.8443 7.56963V13.5697C67.8443 14.3322 67.9534 15.1828 68.0842 15.5976H67.1473C67.06 15.3141 66.9509 14.899 66.8857 14.1155ZM66.8423 12.8276V9.79564H65.6674C63.859 9.79564 62.9877 10.6249 62.9877 12.5438C62.9877 14.0912 63.663 14.9861 64.7088 14.9861C65.733 14.9865 66.4499 14.0045 66.8423 12.8276Z" fill="#2C2B2A"/>
<path fill-rule="evenodd" clip-rule="evenodd" d="M71.224 14.8327V18.9998H70.2021V4.60383H71.0954L71.1805 6.41357C71.6598 5.36589 72.4659 4.38574 73.686 4.38574C75.5148 4.38574 76.5802 6.58813 76.5802 9.77325C76.5802 13.809 75.2311 15.7933 73.185 15.7933C72.3568 15.7933 71.6381 15.3785 71.224 14.8327ZM75.5583 9.85996C75.5583 6.98077 74.7739 5.27879 73.5118 5.27879C72.5315 5.27879 71.7033 6.32648 71.224 7.5048V13.6562C71.6598 14.5507 72.2699 14.9858 73.2502 14.9858C74.6428 14.9855 75.5583 13.3289 75.5583 9.85996Z" fill="#2C2B2A"/>
<path fill-rule="evenodd" clip-rule="evenodd" d="M79.5686 15.5975H78.5467V4.60474H79.5686V9.77377L83.2493 4.60474H84.2514L80.6366 9.70809L84.513 15.5975H83.3801L79.5686 9.90441V15.5975Z" fill="#2C2B2A"/>
<path fill-rule="evenodd" clip-rule="evenodd" d="M88.3915 14.9225C89.8515 14.9225 90.6141 13.7434 90.6141 13.7434L90.9409 14.5734C90.9409 14.5734 90.1131 15.8155 88.3716 15.8155C86.0404 15.8155 84.9742 13.7002 84.9742 10.1011C84.9742 6.50153 86.3233 4.38623 88.1756 4.38623C90.0692 4.38623 91.2894 6.37052 90.9409 10.2753H85.9748C86.0183 13.2854 86.8026 14.9225 88.3915 14.9225ZM85.9969 9.46781H89.9823C90.1565 6.54508 89.2853 5.23538 88.1756 5.23538C87.0207 5.23538 86.0838 6.71963 85.9969 9.46781Z" fill="#2C2B2A"/>
<path fill-rule="evenodd" clip-rule="evenodd" d="M95.4512 15.5972H94.4285H95.4512ZM97.9785 5.45401V4.60449V5.45401Z" fill="#FEFEFE"/>
<path d="M97.9785 4.60449H97.9777V5.45401H97.9785V4.60449Z" fill="#FEFEFE"/>
<path fill-rule="evenodd" clip-rule="evenodd" d="M95.4512 15.5972H94.4285V5.45401H91.8796V4.60449H97.9777V5.45401H95.4512V15.5972Z" fill="#2C2B2A"/>
</svg>
