<svg width="198" height="27" viewBox="0 0 198 27" fill="none" xmlns="http://www.w3.org/2000/svg">
<g clip-path="url(#clip0_2_185)">
<path d="M47.2901 22.3132C48.7522 22.3132 49.8618 22.2351 50.6188 22.0776V16.8229C50.3576 16.7442 49.979 16.6661 49.4826 16.5874C48.9868 16.5093 48.4383 16.4693 47.8379 16.4693C47.3161 16.4693 46.787 16.5093 46.2519 16.5874C45.7168 16.6655 45.2336 16.8096 44.8031 17.0185C44.372 17.228 44.0261 17.5222 43.7649 17.9012C43.5037 18.2802 43.373 18.7567 43.373 19.3325C43.373 20.4568 43.7256 21.2342 44.4306 21.6659C45.1363 22.097 46.09 22.3132 47.2901 22.3132ZM50.854 5.21592C51.9243 5.60827 52.7799 6.15742 53.419 6.86338C54.0587 7.56935 54.5159 8.4248 54.7898 9.43169C55.0637 10.4379 55.2009 11.5429 55.2009 12.746V25.1764C54.4699 25.3332 53.367 25.5234 51.8916 25.7456C50.4162 25.9671 48.7522 26.0785 46.8983 26.0785C45.6714 26.0785 44.5486 25.9604 43.5303 25.7255C42.512 25.49 41.6437 25.1117 40.926 24.5885C40.2077 24.0661 39.6465 23.3861 39.242 22.5494C38.8375 21.7126 38.6349 20.6804 38.6349 19.4513C38.6349 18.2749 38.8635 17.2813 39.32 16.4706C39.7772 15.6606 40.3969 15.0007 41.1799 14.4902C41.9629 13.9804 42.8706 13.6141 43.9015 13.3919C44.9331 13.1697 46.01 13.0589 47.1329 13.0589C47.6546 13.0589 48.2031 13.0916 48.7775 13.157C49.352 13.2224 49.9664 13.3338 50.6188 13.49V12.7059C50.6188 12.1574 50.5535 11.635 50.4229 11.1372C50.2922 10.6408 50.0637 10.2024 49.7378 9.82336C49.4113 9.44435 48.9801 9.1501 48.4457 8.94124C47.9099 8.73172 47.2375 8.62763 46.4285 8.62763C45.3323 8.62763 44.3273 8.70569 43.413 8.8625C42.5014 9.01864 41.759 9.20081 41.1853 9.40966L43.551 5.14919C46.1219 4.59403 48.2531 4.26307 50.854 5.21592Z" fill="#020205"/>
<path d="M62.7641 8.62094V17.4502C62.7641 19.0963 63.026 20.274 63.5471 20.9793C64.0689 21.6846 64.9565 22.0382 66.21 22.0382C67.071 22.0382 67.8354 21.9462 68.5011 21.7633C69.1668 21.5812 69.6953 21.4104 70.0871 21.2535L70.8702 25.0182C70.3224 25.2538 69.6047 25.4953 68.7164 25.7442C67.8287 25.9918 66.7851 26.1165 65.5836 26.1165C64.1215 26.1165 62.9007 25.9211 61.9224 25.5287C60.9428 25.1364 60.1665 24.5678 59.5914 23.8225C59.0169 23.0772 58.6124 22.1757 58.3772 21.1168C58.1426 20.0578 58.0247 18.8487 58.0247 17.4889V4.65942C60.6923 4.65942 63.3592 4.65942 66.0254 4.65942H70.0472C70.0545 5.47081 70.8055 8.62029 66.0787 8.62029C64.9745 8.62163 63.869 8.62094 62.7641 8.62094Z" fill="#020205"/>
<path d="M70.5868 15.4111C70.5868 13.8944 70.8221 12.4764 71.2919 11.1566C71.7623 9.83609 72.4341 8.6924 73.3091 7.72487C74.1834 6.75801 75.2476 6 76.5011 5.45085C77.7539 4.90169 79.164 4.62744 80.7307 4.62744C82.6626 4.62744 84.4899 4.97975 86.2132 5.68572L85.1956 9.56851C84.6472 9.33364 84.0274 9.13745 83.335 8.98065C82.6426 8.82384 81.9056 8.74511 81.1219 8.74511C79.2687 8.74511 77.8586 9.32697 76.8923 10.49C75.926 11.6537 75.4435 13.2938 75.4435 15.4111C75.4435 17.4509 75.9007 19.065 76.8136 20.254C77.7279 21.4438 79.268 22.039 81.4351 22.039C82.2448 22.039 83.0411 21.9602 83.8241 21.8034C84.6078 21.6466 85.2862 21.4504 85.8607 21.2149L86.5264 25.1364C86.0046 25.398 85.2143 25.6328 84.1573 25.8417C83.0998 26.0519 82.0096 26.1566 80.8867 26.1566C79.138 26.1566 77.6166 25.8884 76.3245 25.3526C75.0317 24.8161 73.9615 24.0714 73.1125 23.1173C72.2642 22.1624 71.6311 21.0254 71.2132 19.7055C70.7954 18.385 70.5868 16.9531 70.5868 15.4111Z" fill="#020205"/>
<path d="M87.9916 25.646V1.08545H92.7304V5.37262C93.2528 5.18912 93.8592 5.03232 94.5516 4.90154C95.2433 4.77075 95.9284 4.70603 96.6075 4.70603C98.2521 4.70603 99.6169 4.93489 100.7 5.39196C101.783 5.84904 102.652 6.49028 103.304 7.31368C103.957 8.13708 104.421 9.12395 104.695 10.275C104.969 11.4247 105.106 12.7058 105.106 14.1171V25.646H100.367V14.8624C100.367 13.7648 100.295 12.8293 100.151 12.0586C100.008 11.2872 99.7735 10.6593 99.4463 10.1762C99.1204 9.69247 98.6819 9.34016 98.1342 9.11796C97.5857 8.89576 96.9067 8.78433 96.097 8.78433C95.4712 8.78433 94.8315 8.84971 94.1784 8.98049C93.5254 9.11127 93.0429 9.22873 92.729 9.33349V25.646H87.9916V25.646Z" fill="#020205"/>
<path d="M111.786 5.78445H119.655V7.88764H111.786V18.405C111.786 19.5274 111.881 20.4389 112.073 21.1401C112.263 21.8414 112.537 22.3832 112.894 22.7656C113.25 23.1479 113.684 23.4035 114.193 23.5309C114.702 23.6584 115.262 23.7218 115.873 23.7218C116.916 23.7218 117.757 23.601 118.394 23.3595C119.03 23.1166 119.527 22.8937 119.883 22.6895L120.494 24.7547C120.138 24.9849 119.513 25.2458 118.622 25.5394C117.731 25.833 116.763 25.9791 115.719 25.9791C114.497 25.9791 113.472 25.8196 112.645 25.5007C111.818 25.1817 111.155 24.698 110.659 24.0474C110.162 23.3968 109.812 22.5868 109.609 21.6179C109.405 20.6497 109.303 19.502 109.303 18.1762V2.69702H111.786V5.78445Z" fill="#020205"/>
<path d="M138.469 15.95C138.469 17.5054 138.246 18.9207 137.801 20.1951C137.355 21.4703 136.731 22.5539 135.929 23.446C135.127 24.3388 134.178 25.0334 133.083 25.5306C131.988 26.0277 130.778 26.2759 129.454 26.2759C128.131 26.2759 126.921 26.0277 125.826 25.5306C124.731 25.0334 123.783 24.3388 122.98 23.446C122.179 22.5539 121.553 21.4703 121.108 20.1951C120.663 18.9207 120.44 17.5054 120.44 15.95C120.44 14.3953 120.663 12.9807 121.108 11.7049C121.553 10.4304 122.178 9.34013 122.98 8.43532C123.783 7.53051 124.731 6.82854 125.826 6.33143C126.921 5.83433 128.131 5.58545 129.454 5.58545C130.778 5.58545 131.988 5.83433 133.083 6.33143C134.178 6.82854 135.126 7.53051 135.929 8.43532C136.731 9.34079 137.355 10.4304 137.801 11.7049C138.246 12.98 138.469 14.3946 138.469 15.95ZM135.834 15.95C135.834 13.4778 135.261 11.508 134.115 10.0414C132.969 8.57543 131.416 7.84212 129.455 7.84212C127.494 7.84212 125.941 8.57543 124.796 10.0414C123.649 11.508 123.077 13.4778 123.077 15.95C123.077 18.4236 123.649 20.3866 124.796 21.8399C125.942 23.2932 127.494 24.0199 129.455 24.0199C131.416 24.0199 132.969 23.2932 134.115 21.8399C135.261 20.3866 135.834 18.4236 135.834 15.95Z" fill="#020205"/>
<path d="M153.293 6.04462C153.521 7.31909 153.819 8.6763 154.186 10.1169C154.554 11.5569 154.96 13.0228 155.403 14.5142C155.847 16.0048 156.318 17.4768 156.815 18.9315C157.313 20.3861 157.818 21.7506 158.329 23.0258C158.763 22.0582 159.223 20.8799 159.708 19.492C160.194 18.104 160.679 16.6394 161.165 15.098C161.651 13.5566 162.103 12.0013 162.525 10.4305C162.946 8.85979 163.297 7.39849 163.578 6.04462H166.024C165.105 9.92808 164.102 13.4752 163.016 16.6841C161.93 19.895 160.735 22.9383 159.432 25.8176H157.129C156.743 24.9168 156.339 23.9126 155.916 22.8042C155.492 21.6966 155.056 20.5115 154.607 19.2504C154.158 17.9893 153.724 16.6654 153.304 15.2775C152.884 13.8889 152.484 12.469 152.102 11.0164C151.721 12.4724 151.322 13.895 150.904 15.2862C150.485 16.6781 150.053 18.0046 149.606 19.2664C149.159 20.5289 148.725 21.7132 148.304 22.8229C147.882 23.9319 147.483 24.9295 147.102 25.8169H144.715C143.409 22.9384 142.215 19.891 141.134 16.6788C140.052 13.4659 139.055 9.9214 138.142 6.04395H140.777C141.058 7.39515 141.41 8.85445 141.831 10.4219C142.254 11.9893 142.707 13.544 143.194 15.086C143.679 16.6281 144.171 18.088 144.669 19.4659C145.167 20.8438 145.633 22.0175 146.068 22.9871C146.555 21.7179 147.044 20.3554 147.534 18.8994C148.023 17.4435 148.483 15.9762 148.914 14.4962C149.344 13.0162 149.75 11.5569 150.129 10.1156C150.508 8.6743 150.85 7.31708 151.152 6.04395H153.293V6.04462Z" fill="#020205"/>
<path d="M62.7634 1.08618H58.0247V9.53237H62.7634V1.08618Z" fill="#020205"/>
<path d="M167.308 6.73332C168.046 6.5298 169.039 6.30025 170.287 6.04469C171.534 5.79047 173.062 5.66235 174.871 5.66235C176.373 5.66235 177.627 5.87922 178.633 6.31294C179.638 6.74666 180.441 7.36454 181.038 8.16792C181.636 8.97131 182.063 9.9335 182.319 11.0552C182.572 12.1775 182.7 13.4139 182.7 14.7651V25.8177H180.217V15.5679C180.217 14.1659 180.121 12.9809 179.93 12.0114C179.74 11.0425 179.42 10.2518 178.975 9.6399C178.529 9.02802 177.944 8.5883 177.218 8.32006C176.492 8.05249 175.582 7.91837 174.487 7.91837C173.316 7.91837 172.303 7.98242 171.45 8.10987C170.597 8.23732 170.043 8.35208 169.789 8.45417V25.8177H167.306V6.73332H167.308Z" fill="#020205"/>
<path d="M195.162 12.9095C194.674 12.9095 194.255 12.8401 193.904 12.7006C193.554 12.5619 193.263 12.367 193.032 12.1161C192.801 11.8652 192.631 11.571 192.521 11.232C192.412 10.8937 192.356 10.5207 192.356 10.1143V5.71375H193.666V9.99224C193.666 10.3112 193.702 10.5834 193.775 10.811C193.847 11.0378 193.95 11.2227 194.084 11.3655C194.218 11.5076 194.377 11.6123 194.559 11.6804C194.741 11.7485 194.946 11.7818 195.172 11.7818C195.4 11.7818 195.606 11.7478 195.792 11.6804C195.977 11.6123 196.137 11.5076 196.271 11.3655C196.406 11.2227 196.509 11.0378 196.581 10.811C196.653 10.5841 196.69 10.3112 196.69 9.99224V5.71375H198V10.1143C198 10.5207 197.943 10.8937 197.829 11.232C197.716 11.571 197.543 11.8652 197.314 12.1161C197.084 12.367 196.79 12.5619 196.432 12.7006C196.075 12.8394 195.652 12.9095 195.162 12.9095Z" fill="#050008"/>
<path d="M188.163 5.64246C189.194 5.64246 189.983 5.82863 190.531 6.20096C191.077 6.57396 191.35 7.14312 191.35 7.90847C191.35 8.86399 190.872 9.51123 189.916 9.84954C190.047 10.0057 190.195 10.1958 190.359 10.4194C190.525 10.6429 190.694 10.8851 190.866 11.146C191.037 11.4069 191.203 11.6745 191.36 11.9487C191.519 12.223 191.66 12.4932 191.784 12.7568H190.329C190.198 12.5126 190.057 12.267 189.905 12.0202C189.754 11.7726 189.602 11.5324 189.446 11.2982C189.292 11.0646 189.138 10.8444 188.987 10.6376C188.836 10.4307 188.695 10.2459 188.564 10.0831C188.467 10.0898 188.385 10.0938 188.317 10.0938C188.248 10.0938 188.182 10.0938 188.12 10.0938H187.491V12.7568H186.192V5.81461C186.508 5.74655 186.845 5.70184 187.203 5.67715C187.561 5.65447 187.881 5.64246 188.163 5.64246ZM188.255 6.75011C187.981 6.75011 187.726 6.76078 187.492 6.7808V9.05751H188.06C188.376 9.05751 188.655 9.04016 188.895 9.00613C189.136 8.97277 189.337 8.91137 189.498 8.82396C189.66 8.73588 189.782 8.61711 189.865 8.46765C189.947 8.31885 189.989 8.12935 189.989 7.89848C189.989 7.68162 189.947 7.49877 189.865 7.34997C189.782 7.20117 189.664 7.08241 189.509 6.99433C189.354 6.90625 189.17 6.84352 188.958 6.80615C188.745 6.76879 188.51 6.75011 188.255 6.75011Z" fill="#050008"/>
<path d="M1.21018 1.24102L16.1462 16.4466L23.3752 5.76373L27.4763 11.3594L26.7705 12.4016L19.2216 23.5569L16.8912 27L0 3.47902L1.21018 1.24102Z" fill="black"/>
<path d="M40.9821 2.07318L27.9467 26.9954L22.984 22.2025L39.2548 0L40.9821 2.07318Z" fill="url(#paint0_linear_2_185)"/>
<path d="M62.7631 4.69751H56.1391V8.35676H62.7631V4.69751Z" fill="#020205"/>
</g>
<defs>
<linearGradient id="paint0_linear_2_185" x1="38.2778" y1="-0.1494" x2="23.577" y2="28.4726" gradientUnits="userSpaceOnUse">
<stop stop-color="#009FE3"/>
<stop offset="1" stop-color="#0083B8"/>
</linearGradient>
<clipPath id="clip0_2_185">
<rect width="198" height="27" fill="white"/>
</clipPath>
</defs>
</svg>
